<?xml version="1.0" encoding="UTF-8" ?>
<!DOCTYPE svg PUBLIC "-//W3C//DTD SVG 1.1//EN" "http://www.w3.org/Graphics/SVG/1.1/DTD/svg11.dtd">
<svg width="712pt" height="350pt" viewBox="0 0 712 350" version="1.1" xmlns="http://www.w3.org/2000/svg">
<g id="#39a58dff">
<path fill="#39a58d" opacity="1.00" d=" M 0.00 0.00 L 712.00 0.00 L 712.00 350.00 L 523.44 350.00 C 508.49 338.86 493.39 327.91 478.45 316.76 C 479.85 316.67 481.25 316.60 482.66 316.54 C 489.15 310.64 493.87 303.15 499.56 296.54 C 505.01 288.81 509.83 280.65 514.30 272.32 C 525.04 277.62 538.42 276.97 548.59 270.64 C 560.33 263.68 567.15 249.53 565.37 236.01 C 563.99 223.75 555.71 212.46 544.32 207.64 C 538.23 204.77 531.34 204.18 524.70 204.80 C 527.18 204.07 529.74 203.62 532.34 203.62 C 530.80 201.35 530.95 198.58 530.82 195.96 C 529.95 184.67 529.25 173.30 526.81 162.20 C 533.20 159.26 538.74 154.33 542.08 148.10 C 547.70 138.11 547.58 125.14 541.69 115.30 C 538.67 110.16 534.19 105.94 529.00 103.04 C 520.10 98.11 508.87 97.81 499.61 101.92 C 474.41 67.44 435.88 42.60 393.66 35.38 C 386.17 34.04 378.60 32.73 370.96 32.92 C 362.42 33.11 353.80 32.54 345.32 33.81 C 340.65 24.44 331.80 17.09 321.52 14.80 C 312.61 12.72 302.90 14.32 295.14 19.16 C 282.76 26.51 276.20 42.03 279.20 56.07 C 275.72 58.76 271.56 60.37 268.09 63.08 C 262.43 67.00 257.21 71.50 252.19 76.20 C 236.69 89.06 225.25 106.06 215.48 123.51 C 202.58 117.68 186.33 121.41 177.21 132.19 C 169.45 141.16 167.00 154.40 171.34 165.48 C 173.66 171.89 178.23 177.31 183.75 181.23 C 192.06 186.94 202.96 188.18 212.55 185.35 L 211.92 186.16 C 206.37 187.69 200.55 186.70 194.91 187.54 C 195.61 187.66 197.02 187.89 197.73 188.01 C 198.26 198.35 197.17 208.77 198.86 219.03 C 199.74 224.81 199.85 230.75 201.65 236.36 C 203.05 240.71 204.07 245.17 205.04 249.64 C 196.47 252.04 189.05 257.97 184.69 265.70 C 180.95 272.72 179.66 281.08 181.43 288.86 C 183.43 297.39 188.78 305.17 196.32 309.72 C 208.65 317.64 226.20 315.81 236.59 305.47 C 238.58 308.13 240.27 311.05 242.70 313.36 C 247.44 317.92 251.76 322.96 257.00 326.99 C 263.47 331.89 269.76 337.06 276.67 341.33 C 281.62 344.35 287.28 346.20 291.75 350.00 L 0.00 350.00 L 0.00 0.00 Z" />
</g>
<g id="#f29702ff">
<path fill="#f29702" opacity="1.00" d=" M 295.14 19.16 C 302.90 14.32 312.61 12.72 321.52 14.80 C 331.80 17.09 340.65 24.44 345.32 33.81 C 349.83 43.32 349.82 54.86 345.22 64.33 C 338.85 77.66 323.54 86.13 308.84 83.79 C 294.41 82.04 281.98 70.30 279.20 56.07 C 276.20 42.03 282.76 26.51 295.14 19.16 M 286.11 51.56 C 288.98 52.86 291.86 54.17 294.88 55.09 C 298.56 56.09 298.23 60.92 301.18 62.85 C 303.15 64.15 304.10 67.28 306.95 66.72 C 309.64 66.37 312.33 66.17 315.05 66.22 C 318.14 65.22 320.67 62.92 323.88 62.16 C 328.12 56.28 335.90 56.87 341.81 53.91 C 340.83 48.63 338.51 43.64 337.23 38.40 C 333.43 39.34 329.20 39.84 326.19 42.57 C 323.88 41.25 321.56 39.74 318.91 39.24 C 316.30 39.34 313.93 40.57 311.60 41.60 C 308.44 43.24 304.76 42.35 301.37 42.57 C 299.25 39.73 295.43 39.30 292.58 37.45 C 290.25 42.07 287.87 46.69 286.11 51.56 Z" />
<path fill="#f29702" opacity="1.00" d=" M 331.98 41.80 C 333.09 40.76 334.67 40.50 336.07 40.05 C 337.46 44.40 338.91 48.73 340.16 53.12 C 337.74 53.85 335.31 54.52 332.88 55.19 C 331.71 50.89 329.71 46.79 329.10 42.36 C 329.78 42.06 331.15 41.44 331.83 41.14 C 331.84 42.37 330.87 44.85 333.06 44.58 C 334.74 44.61 334.24 41.05 331.98 41.80 Z" />
<path fill="#f29702" opacity="1.00" d=" M 516.98 220.92 C 520.27 218.46 524.36 217.60 528.30 216.78 C 528.30 218.73 528.30 220.69 528.30 222.64 C 529.68 222.64 531.06 222.64 532.45 222.64 C 532.40 220.73 532.41 218.81 532.58 216.91 C 544.27 218.09 554.31 228.73 553.83 240.64 C 552.07 240.61 550.32 240.57 548.58 240.54 C 548.50 241.94 548.44 243.34 548.39 244.74 C 550.09 244.71 551.78 244.68 553.50 244.67 C 552.06 254.84 542.78 263.78 532.39 263.92 C 532.40 262.22 532.43 260.52 532.45 258.83 C 531.41 258.79 529.32 258.72 528.28 258.68 C 528.26 260.55 528.27 262.42 528.30 264.29 C 517.82 263.55 508.47 255.21 506.85 244.77 C 508.60 244.73 510.36 244.76 512.12 244.87 C 512.18 243.45 512.25 242.03 512.31 240.62 C 510.33 240.60 508.36 240.58 506.40 240.56 C 506.63 232.88 510.32 225.04 516.98 220.92 M 531.23 239.21 C 527.22 236.93 525.27 231.51 520.04 231.21 C 521.56 234.09 523.36 236.97 526.21 238.72 C 527.82 239.59 528.53 241.30 529.09 242.95 C 527.93 247.80 527.47 253.86 530.92 257.88 C 531.72 255.65 532.41 253.34 532.52 250.96 C 533.06 246.98 530.50 243.04 532.42 239.19 C 535.79 235.58 539.45 232.11 541.91 227.77 C 537.79 231.01 534.56 235.21 531.23 239.21 Z" />
<path fill="#f29702" opacity="1.00" d=" M 205.04 249.64 C 219.01 245.81 234.96 252.22 242.16 264.82 C 249.95 277.54 247.54 295.32 236.59 305.47 C 226.20 315.81 208.65 317.64 196.32 309.72 C 188.78 305.17 183.43 297.39 181.43 288.86 C 179.66 281.08 180.95 272.72 184.69 265.70 C 189.05 257.97 196.47 252.04 205.04 249.64 M 225.21 262.46 C 225.37 263.25 225.68 264.84 225.84 265.63 C 221.51 268.91 217.30 272.37 213.05 275.76 C 211.63 274.41 210.23 273.05 208.85 271.67 C 201.51 277.90 195.41 285.48 188.23 291.90 C 195.99 287.76 202.43 281.45 210.01 277.02 C 211.29 277.57 212.07 278.83 213.05 279.77 C 218.65 276.26 223.89 272.21 229.23 268.33 C 230.04 269.05 230.97 269.44 232.03 269.51 C 231.92 267.41 231.94 265.30 231.63 263.22 C 229.88 261.96 227.27 262.79 225.21 262.46 M 230.08 271.09 C 230.04 279.69 229.93 288.30 230.11 296.90 C 232.02 296.91 233.94 296.92 235.85 296.93 C 235.93 288.32 235.92 279.72 235.86 271.12 C 233.93 271.10 232.00 271.09 230.08 271.09 M 221.28 296.94 C 223.28 296.92 225.29 296.89 227.29 296.86 C 227.24 289.44 227.33 282.02 227.22 274.60 C 225.28 274.56 223.35 274.50 221.41 274.43 C 221.11 281.93 221.35 289.43 221.28 296.94 M 212.76 281.12 C 212.76 286.36 212.77 291.59 212.73 296.83 C 214.74 296.87 216.75 296.90 218.77 296.92 C 218.86 291.64 218.74 286.36 218.77 281.08 C 216.76 281.07 214.76 281.08 212.76 281.12 M 204.38 284.90 C 203.80 288.82 204.25 292.88 204.20 296.86 C 206.21 296.91 208.22 296.90 210.24 296.83 C 210.19 292.98 210.03 289.13 210.38 285.29 C 208.46 284.57 206.37 284.64 204.38 284.90 M 195.61 288.36 C 195.53 291.20 195.48 294.06 195.63 296.91 C 197.59 296.90 199.56 296.93 201.54 296.99 C 201.63 294.06 201.65 291.13 201.58 288.20 C 199.59 288.26 197.60 288.30 195.61 288.36 Z" />
</g>
<g id="#349a84ff">
<path fill="#349a84" opacity="1.00" d=" M 345.32 33.81 C 353.80 32.54 362.42 33.11 370.96 32.92 C 378.60 32.73 386.17 34.04 393.66 35.38 C 435.88 42.60 474.41 67.44 499.61 101.92 C 490.90 105.97 483.94 113.85 481.37 123.14 C 478.69 132.96 480.61 144.00 486.91 152.07 C 495.79 164.17 513.22 168.52 526.81 162.20 C 529.25 173.30 529.95 184.67 530.82 195.96 C 530.95 198.58 530.80 201.35 532.34 203.62 C 529.74 203.62 527.18 204.07 524.70 204.80 C 517.64 206.35 510.66 209.17 505.47 214.35 C 498.25 221.15 494.02 231.04 494.35 240.98 C 494.40 254.09 502.57 266.59 514.30 272.32 C 509.83 280.65 505.01 288.81 499.56 296.54 C 493.87 303.15 489.15 310.64 482.66 316.54 C 481.25 316.60 479.85 316.67 478.45 316.76 C 473.28 313.06 468.23 309.22 463.07 305.52 C 461.67 306.91 460.28 308.31 458.90 309.72 C 457.58 308.46 456.27 307.20 454.97 305.94 C 455.13 305.52 455.45 304.68 455.62 304.26 C 465.76 302.14 475.76 299.33 485.91 297.24 C 483.40 284.38 479.87 271.74 476.99 258.96 C 465.77 212.01 454.50 165.07 443.30 118.11 C 449.91 112.29 454.63 103.98 454.72 95.02 C 455.39 86.91 452.35 78.82 447.32 72.53 C 441.29 65.60 432.30 60.99 423.00 61.27 C 410.20 60.62 397.93 68.87 392.85 80.49 C 390.68 81.41 388.40 82.00 386.11 82.51 C 342.05 92.88 298.09 103.69 254.02 113.98 C 254.64 118.15 255.74 122.22 256.73 126.31 C 273.71 197.43 290.84 268.52 307.72 339.66 C 339.30 332.32 370.80 324.63 402.34 317.09 C 406.51 320.78 410.53 324.64 414.69 328.35 C 418.35 331.62 423.53 333.36 428.29 331.53 C 429.99 333.01 431.59 334.59 433.14 336.22 C 432.19 337.19 431.25 338.15 430.31 339.12 C 432.67 343.02 435.69 346.45 438.54 350.00 L 291.75 350.00 C 287.28 346.20 281.62 344.35 276.67 341.33 C 269.76 337.06 263.47 331.89 257.00 326.99 C 251.76 322.96 247.44 317.92 242.70 313.36 C 240.27 311.05 238.58 308.13 236.59 305.47 C 247.54 295.32 249.95 277.54 242.16 264.82 C 234.96 252.22 219.01 245.81 205.04 249.64 C 204.07 245.17 203.05 240.71 201.65 236.36 C 199.85 230.75 199.74 224.81 198.86 219.03 C 197.17 208.77 198.26 198.35 197.73 188.01 C 201.47 188.20 205.24 188.28 208.99 188.01 C 210.37 188.17 211.23 187.17 211.92 186.16 L 212.55 185.35 C 223.66 181.51 232.58 171.77 234.67 160.11 C 237.77 145.39 229.38 129.29 215.48 123.51 C 225.25 106.06 236.69 89.06 252.19 76.20 C 257.21 71.50 262.43 67.00 268.09 63.08 C 271.56 60.37 275.72 58.76 279.20 56.07 C 281.98 70.30 294.41 82.04 308.84 83.79 C 323.54 86.13 338.85 77.66 345.22 64.33 C 349.82 54.86 349.83 43.32 345.32 33.81 Z" />
</g>
<g id="#fefeffff">
<path fill="#fefeff" opacity="1.00" d=" M 286.11 51.56 C 287.87 46.69 290.25 42.07 292.58 37.45 C 295.43 39.30 299.25 39.73 301.37 42.57 C 304.76 42.35 308.44 43.24 311.60 41.60 C 313.93 40.57 316.30 39.34 318.91 39.24 C 321.56 39.74 323.88 41.25 326.19 42.57 C 329.20 39.84 333.43 39.34 337.23 38.40 C 338.51 43.64 340.83 48.63 341.81 53.91 C 335.90 56.87 328.12 56.28 323.88 62.16 C 320.67 62.92 318.14 65.22 315.05 66.22 C 312.33 66.17 309.64 66.37 306.95 66.72 C 304.10 67.28 303.15 64.15 301.18 62.85 C 298.23 60.92 298.56 56.09 294.88 55.09 C 291.86 54.17 288.98 52.86 286.11 51.56 M 331.98 41.80 C 334.24 41.05 334.74 44.61 333.06 44.58 C 330.87 44.85 331.84 42.37 331.83 41.14 C 331.15 41.44 329.78 42.06 329.10 42.36 C 329.71 46.79 331.71 50.89 332.88 55.19 C 335.31 54.52 337.74 53.85 340.16 53.12 C 338.91 48.73 337.46 44.40 336.07 40.05 C 334.67 40.50 333.09 40.76 331.98 41.80 M 294.21 41.14 C 293.71 42.77 294.28 43.33 295.91 42.80 C 296.40 41.18 295.83 40.62 294.21 41.14 M 299.38 44.24 C 298.26 47.19 296.90 50.03 295.58 52.89 C 296.65 53.92 297.72 54.95 298.79 55.98 C 299.44 55.14 300.09 54.30 300.74 53.46 C 302.22 54.23 303.78 54.87 305.35 55.46 C 305.79 56.96 307.08 57.82 308.13 58.87 C 308.38 60.08 309.07 60.93 310.21 61.42 C 309.56 63.41 310.42 65.29 312.75 64.98 C 312.01 62.19 308.80 59.93 309.19 57.07 C 312.13 58.31 312.41 62.42 314.54 64.64 C 315.12 64.52 316.28 64.29 316.86 64.17 C 315.21 60.66 312.35 57.65 311.68 53.75 C 314.74 55.88 315.86 59.73 317.64 62.84 C 318.56 62.61 319.48 62.37 320.40 62.12 C 318.26 58.14 316.10 54.16 314.00 50.16 C 314.42 50.20 315.26 50.27 315.68 50.31 C 318.18 53.74 319.22 58.14 322.11 61.27 C 325.34 60.90 322.70 57.66 322.11 55.98 C 319.95 52.35 319.26 47.20 314.93 45.42 C 313.32 47.31 312.29 49.57 311.57 51.91 C 310.23 52.70 308.71 52.89 307.19 52.92 C 307.17 49.94 307.52 46.98 308.23 44.08 C 305.28 43.99 302.32 43.94 299.38 44.24 Z" />
<path fill="#fefeff" opacity="1.00" d=" M 510.46 106.69 C 515.46 104.44 522.16 108.34 521.80 114.03 C 522.39 120.43 514.18 124.73 509.11 120.98 C 503.76 117.78 504.63 108.88 510.46 106.69 Z" />
<path fill="#fefeff" opacity="1.00" d=" M 497.59 132.76 C 499.61 129.57 500.95 125.19 504.80 123.74 C 510.90 123.58 517.04 123.55 523.14 123.82 C 526.82 125.26 528.24 129.38 529.89 132.63 C 524.88 132.47 519.86 132.76 514.85 132.40 C 514.64 129.80 514.57 127.19 514.89 124.60 C 514.22 124.61 512.89 124.65 512.23 124.67 C 512.63 127.24 512.55 129.85 512.25 132.44 C 507.37 132.75 502.47 132.37 497.59 132.76 Z" />
</g>
<g id="#f1a814ff">
<path fill="#f1a814" opacity="1.00" d=" M 294.21 41.14 C 295.83 40.62 296.40 41.18 295.91 42.80 C 294.28 43.33 293.71 42.77 294.21 41.14 Z" />
</g>
<g id="#f29600ff">
<path fill="#f29600" opacity="1.00" d=" M 299.38 44.24 C 302.32 43.94 305.28 43.99 308.23 44.08 C 307.52 46.98 307.17 49.94 307.19 52.92 C 308.71 52.89 310.23 52.70 311.57 51.91 C 312.29 49.57 313.32 47.31 314.93 45.42 C 319.26 47.20 319.95 52.35 322.11 55.98 C 322.70 57.66 325.34 60.90 322.11 61.27 C 319.22 58.14 318.18 53.74 315.68 50.31 C 315.26 50.27 314.42 50.20 314.00 50.16 C 316.10 54.16 318.26 58.14 320.40 62.12 C 319.48 62.37 318.56 62.61 317.64 62.84 C 315.86 59.73 314.74 55.88 311.68 53.75 C 312.35 57.65 315.21 60.66 316.86 64.17 C 316.28 64.29 315.12 64.52 314.54 64.64 C 312.41 62.42 312.13 58.31 309.19 57.07 C 308.80 59.93 312.01 62.19 312.75 64.98 C 310.42 65.29 309.56 63.41 310.21 61.42 C 309.07 60.93 308.38 60.08 308.13 58.87 C 307.08 57.82 305.79 56.96 305.35 55.46 C 303.78 54.87 302.22 54.23 300.74 53.46 C 300.09 54.30 299.44 55.14 298.79 55.98 C 297.72 54.95 296.65 53.92 295.58 52.89 C 296.90 50.03 298.26 47.19 299.38 44.24 Z" />
</g>
<g id="#7fa116ff">
<path fill="#7fa116" opacity="1.00" d=" M 392.85 80.49 C 397.93 68.87 410.20 60.62 423.00 61.27 C 432.30 60.99 441.29 65.60 447.32 72.53 C 452.35 78.82 455.39 86.91 454.72 95.02 C 454.63 103.98 449.91 112.29 443.30 118.11 C 435.25 125.02 423.84 127.15 413.67 124.54 C 411.67 123.76 409.69 122.94 407.75 122.05 C 404.68 120.43 401.86 118.34 399.45 115.84 C 398.42 114.73 397.44 113.58 396.52 112.38 C 389.71 103.36 388.68 90.85 392.85 80.49 M 424.98 78.91 C 416.88 83.18 413.10 92.42 411.69 101.03 C 408.37 99.46 405.57 97.00 402.29 95.35 C 406.42 100.66 410.44 106.15 412.65 112.57 C 414.57 109.75 415.72 106.48 417.76 103.73 C 425.28 92.44 436.45 84.11 448.35 77.88 C 443.58 77.56 438.80 77.81 434.02 77.64 C 430.98 77.61 427.71 77.26 424.98 78.91 Z" />
</g>
<g id="#f7f7f9ff">
<path fill="#f7f7f9" opacity="1.00" d=" M 424.98 78.91 C 427.71 77.26 430.98 77.61 434.02 77.64 C 438.80 77.81 443.58 77.56 448.35 77.88 C 436.45 84.11 425.28 92.44 417.76 103.73 C 415.72 106.48 414.57 109.75 412.65 112.57 C 410.44 106.15 406.42 100.66 402.29 95.35 C 405.57 97.00 408.37 99.46 411.69 101.03 C 413.10 92.42 416.88 83.18 424.98 78.91 Z" />
</g>
<g id="#ffffffff">
<path fill="#ffffff" opacity="1.00" d=" M 386.11 82.51 C 388.40 82.00 390.68 81.41 392.85 80.49 C 388.68 90.85 389.71 103.36 396.52 112.38 C 378.19 117.74 359.30 121.06 340.90 126.24 C 341.24 127.57 341.37 130.47 343.48 129.49 C 362.11 124.86 380.88 120.72 399.45 115.84 C 401.86 118.34 404.68 120.43 407.75 122.05 C 403.15 124.31 398.02 124.93 393.12 126.21 C 376.71 130.23 360.25 134.05 343.83 138.05 C 344.14 139.32 344.46 140.59 344.78 141.86 C 363.07 137.40 381.40 133.18 399.67 128.66 C 404.38 127.46 409.35 126.94 413.67 124.54 C 423.84 127.15 435.25 125.02 443.30 118.11 C 454.50 165.07 465.77 212.01 476.99 258.96 C 479.87 271.74 483.40 284.38 485.91 297.24 C 475.76 299.33 465.76 302.14 455.62 304.26 C 459.32 296.75 453.35 289.87 449.59 283.86 C 449.70 283.42 449.92 282.53 450.03 282.09 C 452.89 281.18 455.80 280.48 458.70 279.71 C 458.73 278.50 458.77 277.29 458.81 276.09 C 455.66 276.46 452.57 277.25 449.41 277.53 C 449.48 276.88 449.61 275.57 449.67 274.92 C 450.13 272.66 450.79 270.44 451.36 268.21 C 452.92 268.11 454.48 268.00 456.05 267.90 C 455.91 266.77 455.78 265.64 455.65 264.52 C 454.91 264.29 453.43 263.83 452.69 263.59 C 454.15 260.08 454.24 256.08 452.26 252.75 C 449.05 251.57 445.64 251.79 442.83 253.82 C 434.71 256.50 426.18 257.71 417.98 260.13 C 415.78 257.92 413.51 255.79 411.23 253.67 C 416.82 251.11 422.99 250.39 428.88 248.77 C 436.09 246.88 443.41 245.43 450.55 243.29 C 450.35 242.46 449.94 240.81 449.73 239.99 C 435.56 242.85 421.54 246.47 407.53 249.98 C 405.26 247.72 402.82 245.64 400.54 243.39 C 401.92 242.71 403.35 242.10 404.87 241.74 C 418.57 238.49 432.30 235.31 445.97 231.91 C 448.06 231.65 446.96 229.26 447.07 227.95 C 440.91 228.76 434.99 230.71 428.94 232.03 C 418.29 234.39 407.73 237.14 397.13 239.70 C 393.96 239.53 390.81 239.96 388.19 241.86 C 382.09 243.24 376.01 244.70 369.93 246.15 C 370.02 247.39 370.11 248.63 370.21 249.88 C 375.42 249.17 380.42 247.43 385.61 246.55 C 386.10 249.29 387.42 251.75 389.60 253.51 C 384.31 256.04 378.38 256.57 372.76 258.04 C 372.87 259.33 372.99 260.62 373.11 261.92 C 379.93 260.74 386.60 258.90 393.28 257.10 C 399.42 263.06 405.81 268.78 411.71 274.99 C 408.35 272.44 405.59 269.24 402.58 266.31 C 401.47 264.99 399.65 265.23 398.13 265.07 C 390.47 266.59 382.68 267.98 375.36 270.75 C 375.57 271.55 375.99 273.17 376.20 273.98 C 381.86 272.77 387.46 271.33 393.12 270.10 C 392.79 273.54 394.47 276.47 397.15 278.49 C 394.41 276.54 391.33 278.04 388.92 279.73 C 385.42 280.75 381.82 281.37 378.28 282.21 C 378.56 283.45 378.85 284.68 379.15 285.93 C 381.68 285.46 384.19 284.85 386.67 284.14 C 387.43 287.16 389.34 289.62 391.70 291.60 C 390.44 292.02 389.19 292.47 387.91 292.82 C 385.75 293.30 383.55 293.60 381.47 294.37 C 381.42 295.26 381.41 296.16 381.43 297.06 C 382.45 297.46 383.47 297.87 384.49 298.29 C 384.90 299.16 385.32 300.02 385.76 300.89 C 391.14 306.43 396.81 311.69 402.34 317.09 C 370.80 324.63 339.30 332.32 307.72 339.66 C 290.84 268.52 273.71 197.43 256.73 126.31 C 255.74 122.22 254.64 118.15 254.02 113.98 C 298.09 103.69 342.05 92.88 386.11 82.51 M 320.93 130.75 C 306.73 134.35 292.38 137.40 278.22 141.11 L 277.85 141.88 C 281.78 159.88 286.50 177.72 290.56 195.70 C 308.86 192.02 326.91 187.02 345.16 183.00 C 345.03 181.30 344.79 179.61 344.37 177.95 C 340.27 161.46 336.43 144.91 332.48 128.38 C 328.56 128.81 324.75 129.85 320.93 130.75 M 382.38 141.44 C 370.93 144.34 359.39 146.88 347.97 149.86 C 346.00 150.21 347.30 152.55 347.32 153.80 C 373.10 147.86 398.85 141.71 424.51 135.28 C 424.38 134.43 424.12 132.73 423.99 131.88 C 410.01 134.48 396.30 138.51 382.38 141.44 M 417.05 145.93 C 395.72 150.97 374.44 156.17 353.11 161.16 C 351.99 161.65 350.27 161.52 349.75 162.85 C 349.86 163.59 350.08 165.07 350.19 165.81 C 353.12 165.28 356.04 164.66 358.93 163.89 C 381.26 158.42 403.67 153.28 425.98 147.73 C 428.00 147.54 426.84 145.27 426.99 144.01 C 423.59 144.16 420.32 145.09 417.05 145.93 M 352.72 174.02 C 352.80 175.31 352.93 176.59 353.09 177.87 C 374.65 172.94 396.11 167.52 417.66 162.55 C 421.94 161.42 426.35 160.71 430.51 159.13 C 430.09 157.96 429.68 156.80 429.27 155.64 C 403.78 161.86 378.22 167.85 352.72 174.02 M 427.98 168.70 C 403.74 174.57 379.45 180.22 355.24 186.20 C 355.56 187.41 355.86 188.62 356.19 189.84 C 381.81 183.97 407.29 177.50 432.91 171.61 C 432.85 170.42 432.80 169.24 432.75 168.05 C 431.15 168.19 429.54 168.31 427.98 168.70 M 430.01 180.87 C 406.09 186.83 382.00 192.13 358.14 198.25 C 358.43 199.47 358.76 200.68 359.13 201.89 C 384.69 195.86 410.19 189.59 435.77 183.65 C 435.75 182.48 435.74 181.31 435.74 180.14 C 433.81 180.26 431.88 180.38 430.01 180.87 M 338.92 188.63 C 323.27 192.50 307.55 196.07 291.91 199.98 C 292.50 204.41 293.74 208.71 294.78 213.05 C 298.22 226.88 301.39 240.76 304.61 254.64 C 322.91 250.81 340.94 245.78 359.22 241.88 C 358.54 235.80 356.60 229.94 355.28 223.99 C 352.54 211.67 349.29 199.47 346.58 187.15 C 343.99 187.41 341.43 187.95 338.92 188.63 M 431.90 193.13 C 408.33 198.99 384.63 204.29 361.09 210.26 C 361.51 211.38 361.00 214.18 362.99 213.65 C 388.21 207.68 413.43 201.61 438.65 195.62 C 438.67 194.45 438.70 193.29 438.73 192.13 C 436.42 192.24 434.13 192.52 431.90 193.13 M 427.04 207.07 C 406.08 212.08 385.07 216.93 364.17 222.24 C 364.25 223.37 364.34 224.50 364.42 225.63 C 369.05 225.45 373.41 223.70 377.90 222.77 C 399.27 217.88 420.52 212.53 441.87 207.55 C 441.61 206.35 441.34 205.16 441.08 203.97 C 436.31 204.59 431.73 206.07 427.04 207.07 M 429.93 219.00 C 409.02 224.20 388.03 229.05 367.09 234.11 C 367.14 235.34 367.20 236.58 367.26 237.83 C 369.14 237.55 371.02 237.24 372.88 236.78 C 396.81 230.87 420.85 225.43 444.76 219.43 C 444.49 218.30 444.21 217.17 443.95 216.04 C 439.19 216.61 434.60 218.03 429.93 219.00 M 353.98 247.24 C 337.95 251.10 321.88 254.84 305.89 258.88 C 308.77 272.77 312.52 286.48 315.63 300.33 C 316.71 304.79 317.59 309.31 319.01 313.68 C 336.61 309.22 354.30 305.11 371.97 300.92 C 374.25 300.79 372.97 298.31 372.81 297.01 C 368.69 280.04 364.57 263.06 360.71 246.03 C 358.44 246.25 356.18 246.63 353.98 247.24 Z" />
<path fill="#ffffff" opacity="1.00" d=" M 182.99 143.82 C 190.99 139.91 198.95 135.87 207.10 132.28 C 210.88 140.91 215.48 149.16 219.09 157.86 C 217.22 157.68 215.36 157.49 213.49 157.29 C 213.50 160.56 214.14 163.79 214.22 167.06 C 213.16 168.31 211.42 168.57 210.00 169.25 C 205.78 170.83 202.07 173.51 197.79 174.93 C 193.04 164.48 187.77 154.26 182.99 143.82 M 201.91 136.83 C 203.57 139.18 204.73 141.88 206.72 144.00 C 206.63 141.56 205.41 139.41 204.22 137.36 C 203.83 136.31 202.72 136.59 201.91 136.83 M 197.93 139.17 C 198.91 141.57 199.32 144.71 201.77 146.12 C 201.20 143.40 200.30 140.77 199.48 138.13 C 199.09 138.39 198.32 138.91 197.93 139.17 M 199.33 149.02 C 199.94 149.46 200.55 149.90 201.17 150.33 C 202.55 147.59 206.62 148.20 207.99 145.41 C 205.04 146.48 202.38 148.22 199.33 149.02 M 190.68 151.85 C 193.93 150.57 197.47 149.48 200.06 147.03 C 196.75 148.13 193.14 149.27 190.68 151.85 M 206.89 149.08 C 209.98 150.53 207.39 145.82 206.89 149.08 M 205.06 150.00 C 205.47 149.96 206.30 149.89 206.71 149.85 L 206.89 149.08 L 206.13 148.78 C 205.87 149.09 205.33 149.69 205.06 150.00 M 198.52 150.25 C 198.76 150.52 198.76 150.52 198.52 150.25 M 203.50 149.89 L 203.34 150.67 L 203.95 151.12 C 204.23 150.84 204.78 150.28 205.06 150.00 C 204.67 149.97 203.89 149.92 203.50 149.89 M 193.79 158.02 C 198.78 156.86 203.35 154.16 207.76 151.60 C 208.42 152.07 209.09 152.54 209.76 153.02 C 205.76 154.37 202.11 156.52 198.28 158.25 C 197.12 158.90 195.54 159.26 195.13 160.70 C 200.48 158.53 205.51 155.67 210.80 153.37 C 210.32 152.31 209.87 151.25 209.43 150.17 C 204.20 152.74 198.73 154.93 193.79 158.02 M 194.99 152.02 C 195.39 152.01 196.19 151.97 196.60 151.95 L 196.71 151.19 L 196.02 150.81 C 195.76 151.12 195.25 151.72 194.99 152.02 M 192.77 155.97 C 196.46 154.70 200.46 153.39 203.34 150.67 C 199.69 152.10 195.74 153.33 192.77 155.97 M 193.28 152.27 L 193.08 153.04 L 193.84 153.28 C 194.13 152.97 194.70 152.34 194.99 152.02 C 194.56 152.08 193.71 152.21 193.28 152.27 M 193.08 153.04 C 192.41 153.50 192.41 153.50 193.08 153.04 Z" />
<path fill="#ffffff" opacity="1.00" d=" M 499.80 133.63 C 509.33 133.44 518.87 133.66 528.41 133.48 C 528.40 134.49 528.37 136.53 528.36 137.54 C 528.87 137.35 529.89 136.96 530.40 136.76 C 530.38 136.06 530.35 134.65 530.33 133.94 C 532.37 135.92 531.45 138.97 529.86 140.91 C 529.39 139.61 528.81 138.36 528.00 137.25 C 527.97 140.95 527.07 144.55 526.31 148.15 C 518.47 148.44 510.62 148.20 502.77 148.29 C 500.87 143.67 500.28 138.57 499.80 133.63 Z" />
<path fill="#ffffff" opacity="1.00" d=" M 230.08 271.09 C 232.00 271.09 233.93 271.10 235.86 271.12 C 235.92 279.72 235.93 288.32 235.85 296.93 C 233.94 296.92 232.02 296.91 230.11 296.90 C 229.93 288.30 230.04 279.69 230.08 271.09 Z" />
</g>
<g id="#e86012ff">
<path fill="#e86012" opacity="1.00" d=" M 499.61 101.92 C 508.87 97.81 520.10 98.11 529.00 103.04 C 534.19 105.94 538.67 110.16 541.69 115.30 C 547.58 125.14 547.70 138.11 542.08 148.10 C 538.74 154.33 533.20 159.26 526.81 162.20 C 513.22 168.52 495.79 164.17 486.91 152.07 C 480.61 144.00 478.69 132.96 481.37 123.14 C 483.94 113.85 490.90 105.97 499.61 101.92 M 510.46 106.69 C 504.63 108.88 503.76 117.78 509.11 120.98 C 514.18 124.73 522.39 120.43 521.80 114.03 C 522.16 108.34 515.46 104.44 510.46 106.69 M 497.59 132.76 C 502.47 132.37 507.37 132.75 512.25 132.44 L 512.22 132.72 C 512.89 132.75 514.22 132.80 514.88 132.83 L 514.85 132.40 C 519.86 132.76 524.88 132.47 529.89 132.63 C 528.24 129.38 526.82 125.26 523.14 123.82 C 517.04 123.55 510.90 123.58 504.80 123.74 C 500.95 125.19 499.61 129.57 497.59 132.76 M 499.57 140.82 C 498.86 138.24 498.32 135.61 498.12 132.93 C 495.35 134.81 495.57 140.79 499.57 140.82 M 499.80 133.63 C 500.28 138.57 500.87 143.67 502.77 148.29 C 510.62 148.20 518.47 148.44 526.31 148.15 C 527.07 144.55 527.97 140.95 528.00 137.25 C 528.81 138.36 529.39 139.61 529.86 140.91 C 531.45 138.97 532.37 135.92 530.33 133.94 C 530.35 134.65 530.38 136.06 530.40 136.76 C 529.89 136.96 528.87 137.35 528.36 137.54 C 528.37 136.53 528.40 134.49 528.41 133.48 C 518.87 133.66 509.33 133.44 499.80 133.63 M 500.22 148.56 C 500.28 149.60 500.35 150.64 500.43 151.68 C 509.55 151.97 518.69 151.76 527.83 151.79 C 527.96 151.01 528.23 149.46 528.36 148.68 C 518.98 148.67 509.59 148.88 500.22 148.56 Z" />
<path fill="#e86012" opacity="1.00" d=" M 177.21 132.19 C 186.33 121.41 202.58 117.68 215.48 123.51 C 229.38 129.29 237.77 145.39 234.67 160.11 C 232.58 171.77 223.66 181.51 212.55 185.35 C 202.96 188.18 192.06 186.94 183.75 181.23 C 178.23 177.31 173.66 171.89 171.34 165.48 C 167.00 154.40 169.45 141.16 177.21 132.19 M 184.31 132.55 C 185.51 133.94 186.23 135.63 186.86 137.33 C 184.00 138.72 180.88 139.73 178.49 141.92 C 183.58 153.00 189.01 163.92 194.13 174.99 C 194.73 176.41 195.62 177.70 196.84 178.68 C 206.37 174.13 215.88 169.51 225.46 165.06 C 225.61 163.48 225.21 161.96 224.44 160.59 C 219.16 149.83 214.24 138.88 208.82 128.20 C 205.59 127.12 202.48 130.05 199.78 131.60 C 198.83 129.85 198.01 128.04 197.35 126.17 C 193.00 128.29 188.48 130.10 184.31 132.55 Z" />
<path fill="#e86012" opacity="1.00" d=" M 201.52 133.74 C 203.58 133.30 205.48 132.39 207.27 131.32 C 212.55 141.93 217.21 152.85 222.76 163.31 C 214.61 167.94 205.80 171.25 197.54 175.70 C 192.32 164.97 187.12 154.22 182.17 143.37 C 183.89 142.57 185.61 141.76 187.35 140.98 C 187.39 140.57 187.48 139.75 187.52 139.34 C 189.06 140.40 190.72 139.28 192.15 138.59 C 195.25 136.93 198.63 135.78 201.52 133.74 M 182.99 143.82 C 187.77 154.26 193.04 164.48 197.79 174.93 C 202.07 173.51 205.78 170.83 210.00 169.25 C 211.42 168.57 213.16 168.31 214.22 167.06 C 214.14 163.79 213.50 160.56 213.49 157.29 C 215.36 157.49 217.22 157.68 219.09 157.86 C 215.48 149.16 210.88 140.91 207.10 132.28 C 198.95 135.87 190.99 139.91 182.99 143.82 M 214.63 158.03 C 214.63 160.75 214.70 163.48 215.09 166.18 C 217.32 164.07 218.35 161.09 219.85 158.48 C 218.10 158.32 216.36 158.18 214.63 158.03 Z" />
<path fill="#e86012" opacity="1.00" d=" M 199.33 149.02 C 202.38 148.22 205.04 146.48 207.99 145.41 C 206.62 148.20 202.55 147.59 201.17 150.33 C 200.55 149.90 199.94 149.46 199.33 149.02 Z" />
<path fill="#e86012" opacity="1.00" d=" M 190.68 151.85 C 193.14 149.27 196.75 148.13 200.06 147.03 C 197.47 149.48 193.93 150.57 190.68 151.85 Z" />
<path fill="#e86012" opacity="1.00" d=" M 193.79 158.02 C 198.73 154.93 204.20 152.74 209.43 150.17 C 209.87 151.25 210.32 152.31 210.80 153.37 C 205.51 155.67 200.48 158.53 195.13 160.70 C 195.54 159.26 197.12 158.90 198.28 158.25 C 202.11 156.52 205.76 154.37 209.76 153.02 C 209.09 152.54 208.42 152.07 207.76 151.60 C 203.35 154.16 198.78 156.86 193.79 158.02 Z" />
<path fill="#e86012" opacity="1.00" d=" M 192.77 155.97 C 195.74 153.33 199.69 152.10 203.34 150.67 C 200.46 153.39 196.46 154.70 192.77 155.97 Z" />
</g>
<g id="#d9d9ddff">
<path fill="#d9d9dd" opacity="1.00" d=" M 396.52 112.38 C 397.44 113.58 398.42 114.73 399.45 115.84 C 380.88 120.72 362.11 124.86 343.48 129.49 C 341.37 130.47 341.24 127.57 340.90 126.24 C 359.30 121.06 378.19 117.74 396.52 112.38 Z" />
<path fill="#d9d9dd" opacity="1.00" d=" M 407.75 122.05 C 409.69 122.94 411.67 123.76 413.67 124.54 C 409.35 126.94 404.38 127.46 399.67 128.66 C 381.40 133.18 363.07 137.40 344.78 141.86 C 344.46 140.59 344.14 139.32 343.83 138.05 C 360.25 134.05 376.71 130.23 393.12 126.21 C 398.02 124.93 403.15 124.31 407.75 122.05 Z" />
<path fill="#d9d9dd" opacity="1.00" d=" M 382.38 141.44 C 396.30 138.51 410.01 134.48 423.99 131.88 C 424.12 132.73 424.38 134.43 424.51 135.28 C 398.85 141.71 373.10 147.86 347.32 153.80 C 347.30 152.55 346.00 150.21 347.97 149.86 C 359.39 146.88 370.93 144.34 382.38 141.44 Z" />
<path fill="#d9d9dd" opacity="1.00" d=" M 417.05 145.93 C 420.32 145.09 423.59 144.16 426.99 144.01 C 426.84 145.27 428.00 147.54 425.98 147.73 C 403.67 153.28 381.26 158.42 358.93 163.89 C 356.04 164.66 353.12 165.28 350.19 165.81 C 350.08 165.07 349.86 163.59 349.75 162.85 C 350.27 161.52 351.99 161.65 353.11 161.16 C 374.44 156.17 395.72 150.97 417.05 145.93 Z" />
<path fill="#d9d9dd" opacity="1.00" d=" M 430.01 180.87 C 431.88 180.38 433.81 180.26 435.74 180.14 C 435.74 181.31 435.75 182.48 435.77 183.65 C 410.19 189.59 384.69 195.86 359.13 201.89 C 358.76 200.68 358.43 199.47 358.14 198.25 C 382.00 192.13 406.09 186.83 430.01 180.87 Z" />
<path fill="#d9d9dd" opacity="1.00" d=" M 427.04 207.07 C 431.73 206.07 436.31 204.59 441.08 203.97 C 441.34 205.16 441.61 206.35 441.87 207.55 C 420.52 212.53 399.27 217.88 377.90 222.77 C 373.41 223.70 369.05 225.45 364.42 225.63 C 364.34 224.50 364.25 223.37 364.17 222.24 C 385.07 216.93 406.08 212.08 427.04 207.07 Z" />
<path fill="#d9d9dd" opacity="1.00" d=" M 428.94 232.03 C 434.99 230.71 440.91 228.76 447.07 227.95 C 446.96 229.26 448.06 231.65 445.97 231.91 C 432.30 235.31 418.57 238.49 404.87 241.74 C 403.35 242.10 401.92 242.71 400.54 243.39 C 399.36 242.20 398.24 240.95 397.13 239.70 C 407.73 237.14 418.29 234.39 428.94 232.03 Z" />
<path fill="#d9d9dd" opacity="1.00" d=" M 407.53 249.98 C 421.54 246.47 435.56 242.85 449.73 239.99 C 449.94 240.81 450.35 242.46 450.55 243.29 C 443.41 245.43 436.09 246.88 428.88 248.77 C 422.99 250.39 416.82 251.11 411.23 253.67 C 409.97 252.47 408.75 251.21 407.53 249.98 Z" />
<path fill="#d9d9dd" opacity="1.00" d=" M 417.98 260.13 C 426.18 257.71 434.71 256.50 442.83 253.82 C 441.44 255.48 440.21 257.26 439.11 259.12 C 433.21 260.45 427.21 261.51 421.50 263.55 C 420.32 262.41 419.14 261.28 417.98 260.13 Z" />
</g>
<g id="#dd5805ff">
<path fill="#dd5805" opacity="1.00" d=" M 512.23 124.67 C 512.89 124.65 514.22 124.61 514.89 124.60 C 514.57 127.19 514.64 129.80 514.85 132.40 L 514.88 132.83 C 514.22 132.80 512.89 132.75 512.22 132.72 L 512.25 132.44 C 512.55 129.85 512.63 127.24 512.23 124.67 Z" />
<path fill="#dd5805" opacity="1.00" d=" M 201.91 136.83 C 202.72 136.59 203.83 136.31 204.22 137.36 C 205.41 139.41 206.63 141.56 206.72 144.00 C 204.73 141.88 203.57 139.18 201.91 136.83 Z" />
<path fill="#dd5805" opacity="1.00" d=" M 197.93 139.17 C 198.32 138.91 199.09 138.39 199.48 138.13 C 200.30 140.77 201.20 143.40 201.77 146.12 C 199.32 144.71 198.91 141.57 197.93 139.17 Z" />
</g>
<g id="#fafdfbff">
<path fill="#fafdfb" opacity="1.00" d=" M 184.31 132.55 C 188.48 130.10 193.00 128.29 197.35 126.17 C 198.01 128.04 198.83 129.85 199.78 131.60 C 202.48 130.05 205.59 127.12 208.82 128.20 C 214.24 138.88 219.16 149.83 224.44 160.59 C 225.21 161.96 225.61 163.48 225.46 165.06 C 215.88 169.51 206.37 174.13 196.84 178.68 C 195.62 177.70 194.73 176.41 194.13 174.99 C 189.01 163.92 183.58 153.00 178.49 141.92 C 180.88 139.73 184.00 138.72 186.86 137.33 C 186.23 135.63 185.51 133.94 184.31 132.55 M 201.52 133.74 C 198.63 135.78 195.25 136.93 192.15 138.59 C 190.72 139.28 189.06 140.40 187.52 139.34 C 187.48 139.75 187.39 140.57 187.35 140.98 C 185.61 141.76 183.89 142.57 182.17 143.37 C 187.12 154.22 192.32 164.97 197.54 175.70 C 205.80 171.25 214.61 167.94 222.76 163.31 C 217.21 152.85 212.55 141.93 207.27 131.32 C 205.48 132.39 203.58 133.30 201.52 133.74 M 196.27 132.11 C 195.78 133.76 196.35 134.32 197.96 133.78 C 198.43 132.14 197.87 131.58 196.27 132.11 M 189.53 136.28 C 189.72 136.45 189.72 136.45 189.53 136.28 Z" />
</g>
<g id="#d9dadeff">
<path fill="#d9dade" opacity="1.00" d=" M 320.93 130.75 C 324.75 129.85 328.56 128.81 332.48 128.38 C 336.43 144.91 340.27 161.46 344.37 177.95 C 344.79 179.61 345.03 181.30 345.16 183.00 C 326.91 187.02 308.86 192.02 290.56 195.70 C 286.50 177.72 281.78 159.88 277.85 141.88 L 278.22 141.11 C 292.38 137.40 306.73 134.35 320.93 130.75 M 296.88 144.54 C 297.46 144.64 298.62 144.82 299.20 144.91 C 298.78 145.06 297.94 145.35 297.52 145.50 C 297.08 148.96 297.20 152.63 299.43 155.51 C 299.58 160.98 305.43 163.80 309.61 166.25 C 309.75 166.89 310.05 168.18 310.20 168.82 C 308.15 169.77 306.08 171.17 307.28 173.80 C 306.92 173.94 306.20 174.22 305.83 174.35 C 305.91 173.44 306.05 171.60 306.12 170.68 C 302.82 172.74 299.75 175.57 298.46 179.34 C 297.64 182.43 298.31 185.65 298.70 188.75 C 304.21 187.64 309.62 186.11 315.13 184.99 L 314.68 184.09 C 315.54 184.07 317.28 184.03 318.15 184.01 C 323.78 183.10 329.24 181.36 334.84 180.26 C 334.19 176.07 332.20 171.78 328.54 169.43 C 325.98 167.71 322.84 167.40 319.85 167.20 L 320.22 167.94 C 318.68 167.63 317.13 167.32 315.60 167.03 C 315.46 166.52 315.18 165.50 315.05 164.99 C 319.61 162.26 319.00 156.21 321.75 152.24 C 321.13 151.86 319.91 151.10 319.29 150.72 C 320.88 144.51 315.49 137.75 309.04 138.11 C 304.07 137.64 299.41 140.34 296.88 144.54 Z" />
<path fill="#d9dade" opacity="1.00" d=" M 338.92 188.63 C 341.43 187.95 343.99 187.41 346.58 187.15 C 349.29 199.47 352.54 211.67 355.28 223.99 C 356.60 229.94 358.54 235.80 359.22 241.88 C 340.94 245.78 322.91 250.81 304.61 254.64 C 301.39 240.76 298.22 226.88 294.78 213.05 C 293.74 208.71 292.50 204.41 291.91 199.98 C 307.55 196.07 323.27 192.50 338.92 188.63 M 316.77 203.40 C 310.75 207.08 310.41 214.90 311.59 221.12 C 312.54 225.49 313.71 230.42 317.65 233.09 L 316.41 233.16 C 312.68 236.75 312.08 242.07 313.15 246.93 C 318.43 246.36 323.60 244.97 328.68 243.46 C 329.32 243.28 330.59 242.92 331.23 242.74 C 336.55 242.16 341.61 240.24 346.90 239.42 C 346.22 234.55 343.48 229.47 338.44 228.05 C 337.83 227.97 336.59 227.80 335.98 227.71 C 338.42 220.44 335.59 212.56 331.39 206.53 C 328.08 202.00 321.68 201.49 316.77 203.40 Z" />
<path fill="#d9dade" opacity="1.00" d=" M 353.98 247.24 C 356.18 246.63 358.44 246.25 360.71 246.03 C 364.57 263.06 368.69 280.04 372.81 297.01 C 372.97 298.31 374.25 300.79 371.97 300.92 C 354.30 305.11 336.61 309.22 319.01 313.68 C 317.59 309.31 316.71 304.79 315.63 300.33 C 312.52 286.48 308.77 272.77 305.89 258.88 C 321.88 254.84 337.95 251.10 353.98 247.24 M 337.83 255.99 C 337.62 256.71 337.19 258.13 336.98 258.85 C 336.57 258.66 335.73 258.28 335.32 258.10 C 332.67 260.68 328.20 261.10 326.67 264.83 C 324.76 268.61 326.71 272.62 328.24 276.14 L 327.71 277.14 C 330.35 280.68 333.29 284.09 337.55 285.70 C 337.70 286.19 338.00 287.18 338.15 287.67 C 336.97 288.40 335.81 289.15 334.63 289.87 C 332.46 290.76 330.66 292.31 329.22 294.14 L 329.01 294.05 C 326.18 297.86 325.65 303.03 327.51 307.38 C 332.57 305.91 337.71 304.74 342.88 303.71 L 343.19 304.33 C 343.69 304.11 344.67 303.67 345.17 303.45 L 345.86 302.74 C 346.43 302.85 347.57 303.06 348.14 303.17 L 347.15 302.64 C 352.00 301.16 357.03 300.37 361.89 298.96 C 361.51 292.61 356.39 286.69 349.77 286.57 C 349.23 286.51 348.14 286.38 347.60 286.32 C 347.63 287.05 347.71 288.50 347.74 289.22 C 347.49 288.21 347.18 287.21 346.82 286.23 C 345.47 286.45 344.12 286.64 342.78 286.82 C 342.89 286.15 343.11 284.81 343.22 284.14 C 346.83 281.70 346.89 277.15 348.46 273.51 C 349.40 272.51 348.61 270.82 347.23 271.31 C 347.63 268.46 347.80 265.26 346.18 262.73 C 345.22 261.32 343.04 260.46 343.62 258.45 C 342.31 258.68 341.39 258.16 340.86 256.90 C 340.38 257.25 339.42 257.94 338.93 258.28 C 338.56 257.51 338.19 256.75 337.83 255.99 Z" />
</g>
<g id="#f0c4adff">
<path fill="#f0c4ad" opacity="1.00" d=" M 196.27 132.11 C 197.87 131.58 198.43 132.14 197.96 133.78 C 196.35 134.32 195.78 133.76 196.27 132.11 Z" />
</g>
<g id="#fcfdfeff">
<path fill="#fcfdfe" opacity="1.00" d=" M 499.57 140.82 C 495.57 140.79 495.35 134.81 498.12 132.93 C 498.32 135.61 498.86 138.24 499.57 140.82 Z" />
<path fill="#fcfdfe" opacity="1.00" d=" M 315.60 167.03 C 317.13 167.32 318.68 167.63 320.22 167.94 C 320.51 168.53 321.11 169.72 321.41 170.32 C 320.88 170.44 319.82 170.69 319.30 170.81 C 318.46 175.16 318.57 179.61 318.15 184.01 C 317.28 184.03 315.54 184.07 314.68 184.09 C 312.80 180.43 310.65 176.91 308.59 173.35 C 308.26 173.47 307.61 173.69 307.28 173.80 C 306.08 171.17 308.15 169.77 310.20 168.82 C 311.46 170.40 312.07 173.94 314.48 173.69 C 315.12 171.53 315.48 169.28 315.60 167.03 Z" />
</g>
<g id="#df8b6fff">
<path fill="#df8b6f" opacity="1.00" d=" M 189.53 136.28 C 189.72 136.45 189.72 136.45 189.53 136.28 Z" />
</g>
<g id="#3e280dff">
<path fill="#3e280d" opacity="1.00" d=" M 296.88 144.54 C 299.41 140.34 304.07 137.64 309.04 138.11 C 315.49 137.75 320.88 144.51 319.29 150.72 C 319.07 151.65 318.84 152.59 318.60 153.52 C 318.12 150.53 317.87 146.27 314.10 145.68 C 309.60 146.32 304.97 148.96 300.56 146.35 C 297.69 150.20 300.62 154.57 302.15 158.29 C 301.21 157.39 300.30 156.46 299.43 155.51 C 297.20 152.63 297.08 148.96 297.52 145.50 C 297.94 145.35 298.78 145.06 299.20 144.91 C 298.62 144.82 297.46 144.64 296.88 144.54 Z" />
</g>
<g id="#f7caadff">
<path fill="#f7caad" opacity="1.00" d=" M 300.56 146.35 C 304.97 148.96 309.60 146.32 314.10 145.68 C 317.87 146.27 318.12 150.53 318.60 153.52 C 318.84 152.59 319.07 151.65 319.29 150.72 C 319.91 151.10 321.13 151.86 321.75 152.24 C 319.00 156.21 319.61 162.26 315.05 164.99 C 313.26 165.52 311.43 165.89 309.61 166.25 C 305.43 163.80 299.58 160.98 299.43 155.51 C 300.30 156.46 301.21 157.39 302.15 158.29 C 300.62 154.57 297.69 150.20 300.56 146.35 Z" />
<path fill="#f7caad" opacity="1.00" d=" M 330.76 265.76 C 333.87 264.15 337.48 263.28 340.99 263.52 C 344.51 264.54 345.48 268.46 346.09 271.61 C 346.38 271.54 346.95 271.39 347.23 271.31 C 348.61 270.82 349.40 272.51 348.46 273.51 C 346.89 277.15 346.83 281.70 343.22 284.14 C 341.35 284.75 339.45 285.23 337.55 285.70 C 333.29 284.09 330.35 280.68 327.71 277.14 L 328.24 276.14 C 328.40 275.82 328.71 275.19 328.87 274.87 C 328.51 271.79 327.57 267.73 330.76 265.76 Z" />
</g>
<g id="#e39a72ff">
<path fill="#e39a72" opacity="1.00" d=" M 206.89 149.08 C 207.39 145.82 209.98 150.53 206.89 149.08 Z" />
</g>
<g id="#feffffff">
<path fill="#feffff" opacity="1.00" d=" M 500.22 148.56 C 509.59 148.88 518.98 148.67 528.36 148.68 C 528.23 149.46 527.96 151.01 527.83 151.79 C 518.69 151.76 509.55 151.97 500.43 151.68 C 500.35 150.64 500.28 149.60 500.22 148.56 Z" />
</g>
<g id="#f18b4cff">
<path fill="#f18b4c" opacity="1.00" d=" M 205.06 150.00 C 205.33 149.69 205.87 149.09 206.13 148.78 L 206.89 149.08 L 206.71 149.85 C 206.30 149.89 205.47 149.96 205.06 150.00 Z" />
</g>
<g id="#e5594aff">
<path fill="#e5594a" opacity="1.00" d=" M 198.52 150.25 C 198.76 150.52 198.76 150.52 198.52 150.25 Z" />
<path fill="#e5594a" opacity="1.00" d=" M 338.44 228.05 C 343.48 229.47 346.22 234.55 346.90 239.42 C 341.61 240.24 336.55 242.16 331.23 242.74 C 331.45 240.43 331.69 238.13 331.86 235.82 C 331.83 238.05 331.92 240.27 332.05 242.50 C 333.46 241.05 334.81 239.54 336.11 237.99 C 335.51 236.94 334.91 235.89 334.32 234.85 C 336.04 232.82 338.07 230.82 338.44 228.05 Z" />
</g>
<g id="#ec8150ff">
<path fill="#ec8150" opacity="1.00" d=" M 203.50 149.89 C 203.89 149.92 204.67 149.97 205.06 150.00 C 204.78 150.28 204.23 150.84 203.95 151.12 L 203.34 150.67 L 203.50 149.89 Z" />
</g>
<g id="#e98c5aff">
<path fill="#e98c5a" opacity="1.00" d=" M 194.99 152.02 C 195.25 151.72 195.76 151.12 196.02 150.81 L 196.71 151.19 L 196.60 151.95 C 196.19 151.97 195.39 152.01 194.99 152.02 Z" />
</g>
<g id="#ec8853ff">
<path fill="#ec8853" opacity="1.00" d=" M 193.28 152.27 C 193.71 152.21 194.56 152.08 194.99 152.02 C 194.70 152.34 194.13 152.97 193.84 153.28 L 193.08 153.04 L 193.28 152.27 Z" />
</g>
<g id="#ef9c6aff">
<path fill="#ef9c6a" opacity="1.00" d=" M 193.08 153.04 C 192.41 153.50 192.41 153.50 193.08 153.04 Z" />
</g>
<g id="#d8d9ddff">
<path fill="#d8d9dd" opacity="1.00" d=" M 352.72 174.02 C 378.22 167.85 403.78 161.86 429.27 155.64 C 429.68 156.80 430.09 157.96 430.51 159.13 C 426.35 160.71 421.94 161.42 417.66 162.55 C 396.11 167.52 374.65 172.94 353.09 177.87 C 352.93 176.59 352.80 175.31 352.72 174.02 Z" />
<path fill="#d8d9dd" opacity="1.00" d=" M 431.90 193.13 C 434.13 192.52 436.42 192.24 438.73 192.13 C 438.70 193.29 438.67 194.45 438.65 195.62 C 413.43 201.61 388.21 207.68 362.99 213.65 C 361.00 214.18 361.51 211.38 361.09 210.26 C 384.63 204.29 408.33 198.99 431.90 193.13 Z" />
<path fill="#d8d9dd" opacity="1.00" d=" M 429.93 219.00 C 434.60 218.03 439.19 216.61 443.95 216.04 C 444.21 217.17 444.49 218.30 444.76 219.43 C 420.85 225.43 396.81 230.87 372.88 236.78 C 371.02 237.24 369.14 237.55 367.26 237.83 C 367.20 236.58 367.14 235.34 367.09 234.11 C 388.03 229.05 409.02 224.20 429.93 219.00 Z" />
<path fill="#d8d9dd" opacity="1.00" d=" M 369.93 246.15 C 376.01 244.70 382.09 243.24 388.19 241.86 C 387.32 243.42 386.49 245.00 385.61 246.55 C 380.42 247.43 375.42 249.17 370.21 249.88 C 370.11 248.63 370.02 247.39 369.93 246.15 Z" />
<path fill="#d8d9dd" opacity="1.00" d=" M 375.36 270.75 C 382.68 267.98 390.47 266.59 398.13 265.07 C 396.33 266.61 394.66 268.30 393.12 270.10 C 387.46 271.33 381.86 272.77 376.20 273.98 C 375.99 273.17 375.57 271.55 375.36 270.75 Z" />
</g>
<g id="#fffdffff">
<path fill="#fffdff" opacity="1.00" d=" M 214.63 158.03 C 216.36 158.18 218.10 158.32 219.85 158.48 C 218.35 161.09 217.32 164.07 215.09 166.18 C 214.70 163.48 214.63 160.75 214.63 158.03 Z" />
</g>
<g id="#e2b69bff">
<path fill="#e2b69b" opacity="1.00" d=" M 309.61 166.25 C 311.43 165.89 313.26 165.52 315.05 164.99 C 315.18 165.50 315.46 166.52 315.60 167.03 C 315.48 169.28 315.12 171.53 314.48 173.69 C 312.07 173.94 311.46 170.40 310.20 168.82 C 310.05 168.18 309.75 166.89 309.61 166.25 Z" />
</g>
<g id="#434041ff">
<path fill="#434041" opacity="1.00" d=" M 319.85 167.20 C 322.84 167.40 325.98 167.71 328.54 169.43 C 332.20 171.78 334.19 176.07 334.84 180.26 C 329.24 181.36 323.78 183.10 318.15 184.01 C 318.57 179.61 318.46 175.16 319.30 170.81 C 319.82 170.69 320.88 170.44 321.41 170.32 C 321.11 169.72 320.51 168.53 320.22 167.94 L 319.85 167.20 Z" />
<path fill="#434041" opacity="1.00" d=" M 349.77 286.57 C 356.39 286.69 361.51 292.61 361.89 298.96 C 357.03 300.37 352.00 301.16 347.15 302.64 C 348.35 301.03 349.47 299.35 350.55 297.66 C 350.03 296.44 349.54 295.22 349.03 294.01 C 350.40 292.44 351.75 290.86 353.10 289.29 C 352.00 288.37 350.90 287.44 349.77 286.57 Z" />
</g>
<g id="#d8d9dcff">
<path fill="#d8d9dc" opacity="1.00" d=" M 427.98 168.70 C 429.54 168.31 431.15 168.19 432.75 168.05 C 432.80 169.24 432.85 170.42 432.91 171.61 C 407.29 177.50 381.81 183.97 356.19 189.84 C 355.86 188.62 355.56 187.41 355.24 186.20 C 379.45 180.22 403.74 174.57 427.98 168.70 Z" />
<path fill="#d8d9dc" opacity="1.00" d=" M 389.60 253.51 C 390.83 254.70 392.05 255.90 393.28 257.10 C 386.60 258.90 379.93 260.74 373.11 261.92 C 372.99 260.62 372.87 259.33 372.76 258.04 C 378.38 256.57 384.31 256.04 389.60 253.51 Z" />
</g>
<g id="#434040ff">
<path fill="#434040" opacity="1.00" d=" M 298.46 179.34 C 299.75 175.57 302.82 172.74 306.12 170.68 C 306.05 171.60 305.91 173.44 305.83 174.35 C 306.20 174.22 306.92 173.94 307.28 173.80 C 307.61 173.69 308.26 173.47 308.59 173.35 C 310.65 176.91 312.80 180.43 314.68 184.09 L 315.13 184.99 C 309.62 186.11 304.21 187.64 298.70 188.75 C 298.31 185.65 297.64 182.43 298.46 179.34 Z" />
</g>
<g id="#1ba088ff">
<path fill="#1ba088" opacity="1.00" d=" M 194.91 187.54 C 200.55 186.70 206.37 187.69 211.92 186.16 C 211.23 187.17 210.37 188.17 208.99 188.01 C 205.24 188.28 201.47 188.20 197.73 188.01 C 197.02 187.89 195.61 187.66 194.91 187.54 Z" />
</g>
<g id="#832c18ff">
<path fill="#832c18" opacity="1.00" d=" M 316.77 203.40 C 321.68 201.49 328.08 202.00 331.39 206.53 C 335.59 212.56 338.42 220.44 335.98 227.71 C 334.80 228.90 333.54 230.01 332.15 230.95 C 332.16 230.06 332.18 228.29 332.19 227.41 C 332.17 225.29 332.08 223.18 331.90 221.07 C 331.53 218.22 330.99 215.39 330.47 212.56 C 325.52 212.34 320.64 211.00 316.56 208.13 C 316.66 206.55 316.73 204.97 316.77 203.40 Z" />
</g>
<g id="#651c08ff">
<path fill="#651c08" opacity="1.00" d=" M 311.59 221.12 C 310.41 214.90 310.75 207.08 316.77 203.40 C 316.73 204.97 316.66 206.55 316.56 208.13 C 315.90 212.91 315.51 217.82 317.00 222.50 C 317.38 225.19 318.28 227.79 320.08 229.87 C 320.26 230.80 320.63 232.65 320.81 233.57 C 320.02 233.45 318.44 233.21 317.65 233.09 C 313.71 230.42 312.54 225.49 311.59 221.12 Z" />
</g>
<g id="#f19700ff">
<path fill="#f19700" opacity="1.00" d=" M 505.47 214.35 C 510.66 209.17 517.64 206.35 524.70 204.80 C 531.34 204.18 538.23 204.77 544.32 207.64 C 555.71 212.46 563.99 223.75 565.37 236.01 C 567.15 249.53 560.33 263.68 548.59 270.64 C 538.42 276.97 525.04 277.62 514.30 272.32 C 502.57 266.59 494.40 254.09 494.35 240.98 C 494.02 231.04 498.25 221.15 505.47 214.35 M 524.42 214.68 C 512.78 217.01 503.66 228.08 503.70 239.97 C 503.30 248.87 507.88 257.77 515.31 262.67 C 525.34 269.59 540.13 268.48 548.69 259.68 C 559.02 250.22 559.39 232.45 549.61 222.47 C 543.36 215.60 533.44 212.68 524.42 214.68 Z" />
</g>
<g id="#f8cbaeff">
<path fill="#f8cbae" opacity="1.00" d=" M 317.00 222.50 C 315.51 217.82 315.90 212.91 316.56 208.13 C 320.64 211.00 325.52 212.34 330.47 212.56 C 330.99 215.39 331.53 218.22 331.90 221.07 C 330.69 222.71 329.44 224.30 328.16 225.88 C 326.64 226.06 325.11 226.25 323.59 226.45 C 321.25 225.39 319.00 224.11 317.00 222.50 Z" />
</g>
<g id="#f7fbffff">
<path fill="#f7fbff" opacity="1.00" d=" M 524.42 214.68 C 533.44 212.68 543.36 215.60 549.61 222.47 C 559.39 232.45 559.02 250.22 548.69 259.68 C 540.13 268.48 525.34 269.59 515.31 262.67 C 507.88 257.77 503.30 248.87 503.70 239.97 C 503.66 228.08 512.78 217.01 524.42 214.68 M 516.98 220.92 C 510.32 225.04 506.63 232.88 506.40 240.56 C 508.36 240.58 510.33 240.60 512.31 240.62 C 512.25 242.03 512.18 243.45 512.12 244.87 C 510.36 244.76 508.60 244.73 506.85 244.77 C 508.47 255.21 517.82 263.55 528.30 264.29 C 528.27 262.42 528.26 260.55 528.28 258.68 C 529.32 258.72 531.41 258.79 532.45 258.83 C 532.43 260.52 532.40 262.22 532.39 263.92 C 542.78 263.78 552.06 254.84 553.50 244.67 C 551.78 244.68 550.09 244.71 548.39 244.74 C 548.44 243.34 548.50 241.94 548.58 240.54 C 550.32 240.57 552.07 240.61 553.83 240.64 C 554.31 228.73 544.27 218.09 532.58 216.91 C 532.41 218.81 532.40 220.73 532.45 222.64 C 531.06 222.64 529.68 222.64 528.30 222.64 C 528.30 220.69 528.30 218.73 528.30 216.78 C 524.36 217.60 520.27 218.46 516.98 220.92 Z" />
</g>
<g id="#3c0506ff">
<path fill="#3c0506" opacity="1.00" d=" M 328.16 225.88 C 329.44 224.30 330.69 222.71 331.90 221.07 C 332.08 223.18 332.17 225.29 332.19 227.41 C 331.51 227.42 330.15 227.45 329.47 227.47 C 329.14 227.07 328.49 226.28 328.16 225.88 Z" />
<path fill="#3c0506" opacity="1.00" d=" M 317.00 222.50 C 319.00 224.11 321.25 225.39 323.59 226.45 C 323.64 227.02 323.73 228.17 323.77 228.74 C 322.68 229.28 321.58 229.81 320.48 230.34 L 320.08 229.87 C 318.28 227.79 317.38 225.19 317.00 222.50 Z" />
</g>
<g id="#e0b79bff">
<path fill="#e0b79b" opacity="1.00" d=" M 323.59 226.45 C 325.11 226.25 326.64 226.06 328.16 225.88 C 328.49 226.28 329.14 227.07 329.47 227.47 C 330.15 227.45 331.51 227.42 332.19 227.41 C 332.18 228.29 332.16 230.06 332.15 230.95 C 330.43 233.09 329.80 235.79 329.09 238.38 C 326.70 236.61 325.34 233.09 322.25 232.52 C 321.67 231.78 321.07 231.05 320.48 230.34 C 321.58 229.81 322.68 229.28 323.77 228.74 C 323.73 228.17 323.64 227.02 323.59 226.45 Z" />
</g>
<g id="#d93323ff">
<path fill="#d93323" opacity="1.00" d=" M 332.15 230.95 C 333.54 230.01 334.80 228.90 335.98 227.71 C 336.59 227.80 337.83 227.97 338.44 228.05 C 338.07 230.82 336.04 232.82 334.32 234.85 C 334.91 235.89 335.51 236.94 336.11 237.99 C 334.81 239.54 333.46 241.05 332.05 242.50 C 331.92 240.27 331.83 238.05 331.86 235.82 C 331.95 234.19 332.07 232.57 332.15 230.95 Z" />
</g>
<g id="#f7faffff">
<path fill="#f7faff" opacity="1.00" d=" M 531.23 239.21 C 534.56 235.21 537.79 231.01 541.91 227.77 C 539.45 232.11 535.79 235.58 532.42 239.19 C 530.50 243.04 533.06 246.98 532.52 250.96 C 532.41 253.34 531.72 255.65 530.92 257.88 C 527.47 253.86 527.93 247.80 529.09 242.95 C 528.53 241.30 527.82 239.59 526.21 238.72 C 523.36 236.97 521.56 234.09 520.04 231.21 C 525.27 231.51 527.22 236.93 531.23 239.21 Z" />
</g>
<g id="#da3426ff">
<path fill="#da3426" opacity="1.00" d=" M 320.08 229.87 L 320.48 230.34 C 321.07 231.05 321.67 231.78 322.25 232.52 C 324.41 236.15 326.59 239.78 328.68 243.46 C 326.40 243.06 324.23 242.27 322.26 241.08 C 322.39 239.83 322.53 238.59 322.66 237.35 C 320.60 236.73 318.53 236.13 316.46 235.53 C 316.45 234.94 316.43 233.75 316.41 233.16 L 317.65 233.09 C 318.44 233.21 320.02 233.45 320.81 233.57 C 320.63 232.65 320.26 230.80 320.08 229.87 Z" />
</g>
<g id="#fffeffff">
<path fill="#fffeff" opacity="1.00" d=" M 329.09 238.38 C 329.80 235.79 330.43 233.09 332.15 230.95 C 332.07 232.57 331.95 234.19 331.86 235.82 C 331.69 238.13 331.45 240.43 331.23 242.74 C 330.59 242.92 329.32 243.28 328.68 243.46 C 326.59 239.78 324.41 236.15 322.25 232.52 C 325.34 233.09 326.70 236.61 329.09 238.38 Z" />
<path fill="#fffeff" opacity="1.00" d=" M 204.38 284.90 C 206.37 284.64 208.46 284.57 210.38 285.29 C 210.03 289.13 210.19 292.98 210.24 296.83 C 208.22 296.90 206.21 296.91 204.20 296.86 C 204.25 292.88 203.80 288.82 204.38 284.90 Z" />
<path fill="#fffeff" opacity="1.00" d=" M 195.61 288.36 C 197.60 288.30 199.59 288.26 201.58 288.20 C 201.65 291.13 201.63 294.06 201.54 296.99 C 199.56 296.93 197.59 296.90 195.63 296.91 C 195.48 294.06 195.53 291.20 195.61 288.36 Z" />
</g>
<g id="#e4594aff">
<path fill="#e4594a" opacity="1.00" d=" M 313.15 246.93 C 312.08 242.07 312.68 236.75 316.41 233.16 C 316.43 233.75 316.45 234.94 316.46 235.53 C 318.53 236.13 320.60 236.73 322.66 237.35 C 322.53 238.59 322.39 239.83 322.26 241.08 C 324.23 242.27 326.40 243.06 328.68 243.46 C 323.60 244.97 318.43 246.36 313.15 246.93 Z" />
</g>
<g id="#f7bd8dff">
<path fill="#f7bd8d" opacity="1.00" d=" M 388.19 241.86 C 390.81 239.96 393.96 239.53 397.13 239.70 C 398.24 240.95 399.36 242.20 400.54 243.39 C 402.82 245.64 405.26 247.72 407.53 249.98 C 408.75 251.21 409.97 252.47 411.23 253.67 C 413.51 255.79 415.78 257.92 417.98 260.13 C 419.14 261.28 420.32 262.41 421.50 263.55 C 423.69 265.74 426.00 267.82 428.12 270.09 C 429.59 271.77 430.98 273.65 433.05 274.67 C 433.34 272.83 433.60 270.98 433.96 269.16 C 435.46 265.70 437.32 262.42 439.11 259.12 C 440.21 257.26 441.44 255.48 442.83 253.82 C 445.64 251.79 449.05 251.57 452.26 252.75 C 454.24 256.08 454.15 260.08 452.69 263.59 C 452.20 265.12 451.77 266.66 451.36 268.21 C 450.79 270.44 450.13 272.66 449.67 274.92 C 449.07 277.86 448.86 280.92 449.59 283.86 C 453.35 289.87 459.32 296.75 455.62 304.26 C 455.45 304.68 455.13 305.52 454.97 305.94 C 456.27 307.20 457.58 308.46 458.90 309.72 C 450.35 318.59 441.72 327.38 433.14 336.22 C 431.59 334.59 429.99 333.01 428.29 331.53 C 423.53 333.36 418.35 331.62 414.69 328.35 C 410.53 324.64 406.51 320.78 402.34 317.09 C 396.81 311.69 391.14 306.43 385.76 300.89 C 384.98 297.90 386.16 295.19 387.91 292.82 C 389.19 292.47 390.44 292.02 391.70 291.60 C 389.34 289.62 387.43 287.16 386.67 284.14 C 387.41 282.66 388.14 281.18 388.92 279.73 C 391.33 278.04 394.41 276.54 397.15 278.49 C 394.47 276.47 392.79 273.54 393.12 270.10 C 394.66 268.30 396.33 266.61 398.13 265.07 C 399.65 265.23 401.47 264.99 402.58 266.31 C 405.59 269.24 408.35 272.44 411.71 274.99 C 405.81 268.78 399.42 263.06 393.28 257.10 C 392.05 255.90 390.83 254.70 389.60 253.51 C 387.42 251.75 386.10 249.29 385.61 246.55 C 386.49 245.00 387.32 243.42 388.19 241.86 Z" />
</g>
<g id="#812b17ff">
<path fill="#812b17" opacity="1.00" d=" M 337.83 255.99 C 338.19 256.75 338.56 257.51 338.93 258.28 C 339.42 257.94 340.38 257.25 340.86 256.90 C 341.39 258.16 342.31 258.68 343.62 258.45 C 343.04 260.46 345.22 261.32 346.18 262.73 C 347.80 265.26 347.63 268.46 347.23 271.31 C 346.95 271.39 346.38 271.54 346.09 271.61 C 345.48 268.46 344.51 264.54 340.99 263.52 C 337.48 263.28 333.87 264.15 330.76 265.76 C 327.57 267.73 328.51 271.79 328.87 274.87 C 328.71 275.19 328.40 275.82 328.24 276.14 C 326.71 272.62 324.76 268.61 326.67 264.83 C 328.20 261.10 332.67 260.68 335.32 258.10 C 335.73 258.28 336.57 258.66 336.98 258.85 C 337.19 258.13 337.62 256.71 337.83 255.99 Z" />
</g>
<g id="#fefefeff">
<path fill="#fefefe" opacity="1.00" d=" M 421.50 263.55 C 427.21 261.51 433.21 260.45 439.11 259.12 C 437.32 262.42 435.46 265.70 433.96 269.16 C 432.01 269.45 430.06 269.76 428.12 270.09 C 426.00 267.82 423.69 265.74 421.50 263.55 Z" />
</g>
<g id="#fdfffbff">
<path fill="#fdfffb" opacity="1.00" d=" M 225.21 262.46 C 227.27 262.79 229.88 261.96 231.63 263.22 C 231.94 265.30 231.92 267.41 232.03 269.51 C 230.97 269.44 230.04 269.05 229.23 268.33 C 223.89 272.21 218.65 276.26 213.05 279.77 C 212.07 278.83 211.29 277.57 210.01 277.02 C 202.43 281.45 195.99 287.76 188.23 291.90 C 195.41 285.48 201.51 277.90 208.85 271.67 C 210.23 273.05 211.63 274.41 213.05 275.76 C 217.30 272.37 221.51 268.91 225.84 265.63 C 225.68 264.84 225.37 263.25 225.21 262.46 Z" />
</g>
<g id="#dbd8deff">
<path fill="#dbd8de" opacity="1.00" d=" M 451.36 268.21 C 451.77 266.66 452.20 265.12 452.69 263.59 C 453.43 263.83 454.91 264.29 455.65 264.52 C 455.78 265.64 455.91 266.77 456.05 267.90 C 454.48 268.00 452.92 268.11 451.36 268.21 Z" />
</g>
<g id="#eadbdfff">
<path fill="#eadbdf" opacity="1.00" d=" M 428.12 270.09 C 430.06 269.76 432.01 269.45 433.96 269.16 C 433.60 270.98 433.34 272.83 433.05 274.67 C 430.98 273.65 429.59 271.77 428.12 270.09 Z" />
</g>
<g id="#fffffdff">
<path fill="#fffffd" opacity="1.00" d=" M 221.28 296.94 C 221.35 289.43 221.11 281.93 221.41 274.43 C 223.35 274.50 225.28 274.56 227.22 274.60 C 227.33 282.02 227.24 289.44 227.29 296.86 C 225.29 296.89 223.28 296.92 221.28 296.94 Z" />
</g>
<g id="#d8d8ddff">
<path fill="#d8d8dd" opacity="1.00" d=" M 449.59 283.86 C 448.86 280.92 449.07 277.86 449.67 274.92 C 449.61 275.57 449.48 276.88 449.41 277.53 C 452.57 277.25 455.66 276.46 458.81 276.09 C 458.77 277.29 458.73 278.50 458.70 279.71 C 455.80 280.48 452.89 281.18 450.03 282.09 C 449.92 282.53 449.70 283.42 449.59 283.86 Z" />
</g>
<g id="#d8d7dcff">
<path fill="#d8d7dc" opacity="1.00" d=" M 378.28 282.21 C 381.82 281.37 385.42 280.75 388.92 279.73 C 388.14 281.18 387.41 282.66 386.67 284.14 C 384.19 284.85 381.68 285.46 379.15 285.93 C 378.85 284.68 378.56 283.45 378.28 282.21 Z" />
</g>
<g id="#fefffdff">
<path fill="#fefffd" opacity="1.00" d=" M 212.76 281.12 C 214.76 281.08 216.76 281.07 218.77 281.08 C 218.74 286.36 218.86 291.64 218.77 296.92 C 216.75 296.90 214.74 296.87 212.73 296.83 C 212.77 291.59 212.76 286.36 212.76 281.12 Z" />
</g>
<g id="#e1b59aff">
<path fill="#e1b59a" opacity="1.00" d=" M 337.55 285.70 C 339.45 285.23 341.35 284.75 343.22 284.14 C 343.11 284.81 342.89 286.15 342.78 286.82 C 342.60 288.10 341.32 290.22 344.07 289.44 C 343.96 290.99 343.85 292.54 343.81 294.10 C 343.19 292.64 342.71 289.50 340.37 290.52 C 340.40 290.19 340.47 289.54 340.51 289.21 C 339.71 288.71 338.92 288.19 338.15 287.67 C 338.00 287.18 337.70 286.19 337.55 285.70 Z" />
</g>
<g id="#f5f4f9ff">
<path fill="#f5f4f9" opacity="1.00" d=" M 342.78 286.82 C 344.12 286.64 345.47 286.45 346.82 286.23 C 347.18 287.21 347.49 288.21 347.74 289.22 C 346.50 293.61 346.04 298.14 346.02 302.72 L 347.15 302.64 L 348.14 303.17 C 347.57 303.06 346.43 302.85 345.86 302.74 C 345.81 299.73 344.67 296.93 343.81 294.10 C 343.85 292.54 343.96 290.99 344.07 289.44 C 341.32 290.22 342.60 288.10 342.78 286.82 Z" />
</g>
<g id="#342e2eff">
<path fill="#342e2e" opacity="1.00" d=" M 347.60 286.32 C 348.14 286.38 349.23 286.51 349.77 286.57 C 350.90 287.44 352.00 288.37 353.10 289.29 C 351.75 290.86 350.40 292.44 349.03 294.01 C 349.54 295.22 350.03 296.44 350.55 297.66 C 349.47 299.35 348.35 301.03 347.15 302.64 L 346.02 302.72 C 346.04 298.14 346.50 293.61 347.74 289.22 C 347.71 288.50 347.63 287.05 347.60 286.32 Z" />
</g>
<g id="#f2f6f7ff">
<path fill="#f2f6f7" opacity="1.00" d=" M 334.63 289.87 C 335.81 289.15 336.97 288.40 338.15 287.67 C 338.92 288.19 339.71 288.71 340.51 289.21 C 340.47 289.54 340.40 290.19 340.37 290.52 L 340.27 291.45 C 341.43 295.27 341.60 299.32 342.88 303.10 C 343.45 303.19 344.59 303.36 345.17 303.45 C 344.67 303.67 343.69 304.11 343.19 304.33 L 342.88 303.71 L 342.64 303.25 C 341.21 300.10 339.44 297.13 337.68 294.16 C 337.16 294.01 336.11 293.69 335.59 293.53 C 335.27 292.30 334.95 291.09 334.63 289.87 Z" />
</g>
<g id="#322c29ff">
<path fill="#322c29" opacity="1.00" d=" M 329.22 294.14 C 330.66 292.31 332.46 290.76 334.63 289.87 C 334.95 291.09 335.27 292.30 335.59 293.53 C 336.11 293.69 337.16 294.01 337.68 294.16 C 339.44 297.13 341.21 300.10 342.64 303.25 C 340.58 302.57 338.49 301.99 336.41 301.41 C 336.51 299.99 336.59 298.57 336.67 297.15 C 334.19 296.13 331.71 295.11 329.22 294.14 Z" />
</g>
<g id="#b8021aff">
<path fill="#b8021a" opacity="1.00" d=" M 340.37 290.52 C 342.71 289.50 343.19 292.64 343.81 294.10 C 344.67 296.93 345.81 299.73 345.86 302.74 L 345.17 303.45 C 344.59 303.36 343.45 303.19 342.88 303.10 C 341.60 299.32 341.43 295.27 340.27 291.45 L 340.37 290.52 Z" />
</g>
<g id="#d8d8d9ff">
<path fill="#d8d8d9" opacity="1.00" d=" M 381.47 294.37 C 383.55 293.60 385.75 293.30 387.91 292.82 C 386.16 295.19 384.98 297.90 385.76 300.89 C 385.32 300.02 384.90 299.16 384.49 298.29 C 383.47 297.87 382.45 297.46 381.43 297.06 C 381.41 296.16 381.42 295.26 381.47 294.37 Z" />
</g>
<g id="#444041ff">
<path fill="#444041" opacity="1.00" d=" M 329.01 294.05 L 329.22 294.14 C 331.71 295.11 334.19 296.13 336.67 297.15 C 336.59 298.57 336.51 299.99 336.41 301.41 C 338.49 301.99 340.58 302.57 342.64 303.25 L 342.88 303.71 C 337.71 304.74 332.57 305.91 327.51 307.38 C 325.65 303.03 326.18 297.86 329.01 294.05 Z" />
</g>
<g id="#013656ff">
<path fill="#013656" opacity="1.00" d=" M 458.90 309.72 C 460.28 308.31 461.67 306.91 463.07 305.52 C 468.23 309.22 473.28 313.06 478.45 316.76 C 493.39 327.91 508.49 338.86 523.44 350.00 L 438.54 350.00 C 435.69 346.45 432.67 343.02 430.31 339.12 C 431.25 338.15 432.19 337.19 433.14 336.22 C 441.72 327.38 450.35 318.59 458.90 309.72 Z" />
</g>
</svg>
