<?xml version="1.0" encoding="UTF-8" ?>
<!DOCTYPE svg PUBLIC "-//W3C//DTD SVG 1.1//EN" "http://www.w3.org/Graphics/SVG/1.1/DTD/svg11.dtd">
<svg width="712pt" height="350pt" viewBox="0 0 712 350" version="1.1" xmlns="http://www.w3.org/2000/svg">
<g id="#2cbad0ff">
<path fill="#2cbad0" opacity="1.00" d=" M 0.00 0.00 L 712.00 0.00 L 712.00 350.00 L 0.00 350.00 L 0.00 0.00 M 263.55 47.51 C 266.16 48.69 262.26 49.38 261.51 50.54 C 261.50 50.20 261.49 49.53 261.48 49.20 C 260.42 50.45 259.35 51.71 258.30 52.97 C 257.43 53.48 256.74 54.14 256.22 54.98 C 255.42 55.75 254.65 56.54 253.88 57.33 C 255.48 57.90 257.09 58.47 258.70 59.05 C 254.81 61.62 251.88 65.33 248.59 68.58 C 248.52 69.19 248.39 70.40 248.32 71.00 C 250.18 70.00 251.95 68.87 253.67 67.65 C 254.05 67.99 254.80 68.66 255.18 69.00 C 250.06 75.40 246.68 83.04 244.90 91.00 C 242.50 97.43 243.54 104.36 243.18 111.05 C 241.74 111.30 240.31 111.55 238.88 111.79 C 236.03 114.99 233.90 119.48 235.18 123.78 C 237.44 133.41 241.50 142.49 243.95 152.06 C 244.45 152.36 245.45 152.96 245.95 153.26 C 246.05 153.61 246.25 154.31 246.35 154.66 C 248.47 154.59 250.60 154.39 252.72 154.52 C 254.44 157.69 255.15 161.29 256.78 164.51 C 262.25 175.19 267.56 186.28 276.00 195.00 C 278.29 201.21 281.36 207.64 279.71 214.44 C 278.74 217.70 277.42 221.21 273.96 222.51 L 273.97 222.79 C 263.84 226.42 252.98 227.72 243.09 232.06 C 228.02 238.50 215.00 250.48 208.71 265.75 C 205.66 275.07 208.81 285.18 213.47 293.41 C 223.15 310.12 240.72 321.72 259.77 324.60 C 260.81 325.91 262.43 326.24 264.03 326.18 C 291.04 326.29 318.04 326.22 345.05 326.20 C 346.61 326.17 348.34 326.10 349.20 324.53 C 371.57 321.03 392.36 305.37 399.51 283.53 C 400.34 285.16 401.04 286.87 401.42 288.68 C 403.67 299.74 406.24 310.73 408.28 321.83 C 454.87 311.99 501.48 302.25 548.00 292.10 C 547.68 290.80 547.38 289.51 547.07 288.23 C 548.33 287.99 549.59 287.77 550.86 287.56 C 550.78 285.62 550.74 283.68 550.38 281.78 C 543.61 250.27 537.02 218.72 530.25 187.21 C 535.26 182.74 540.12 178.11 545.02 173.53 C 540.48 168.20 535.60 163.18 530.67 158.22 C 520.18 148.07 510.72 136.91 500.20 126.78 C 491.95 118.58 484.45 109.65 476.04 101.60 C 474.92 100.55 473.81 99.50 472.70 98.45 C 473.20 97.04 473.63 95.61 474.06 94.17 C 448.62 84.56 423.15 75.02 397.65 65.56 L 397.66 65.33 C 398.09 62.77 396.54 60.94 394.56 59.61 C 394.15 58.10 393.77 56.60 393.36 55.10 C 379.81 55.21 366.26 55.21 352.71 55.09 C 343.43 44.68 329.53 39.95 316.03 38.32 C 309.67 38.05 303.29 38.27 296.92 38.20 C 285.28 38.82 273.90 42.20 263.55 47.51 Z" />
<path fill="#2cbad0" opacity="1.00" d=" M 329.56 203.06 C 334.12 203.09 338.67 202.84 343.23 202.79 C 343.63 202.89 344.42 203.08 344.81 203.18 C 357.24 207.89 369.54 212.98 382.25 216.91 C 384.39 218.52 386.25 220.47 387.86 222.61 C 389.00 233.43 392.31 243.87 393.91 254.62 C 384.76 241.61 370.64 232.65 355.40 228.54 C 348.67 226.57 341.66 225.53 335.18 222.77 C 331.86 221.22 330.16 217.87 329.23 214.51 C 328.06 210.76 328.45 206.77 329.56 203.06 Z" />
</g>
<g id="#a43b04ff">
<path fill="#a43b04" opacity="1.00" d=" M 263.55 47.51 C 273.90 42.20 285.28 38.82 296.92 38.20 C 303.29 38.27 309.67 38.05 316.03 38.32 C 329.53 39.95 343.43 44.68 352.71 55.09 C 356.27 59.03 358.93 63.71 361.00 68.58 C 361.46 69.73 361.85 70.89 362.27 72.06 L 362.60 73.05 C 362.92 74.23 363.19 75.42 363.46 76.62 C 363.62 77.41 363.93 79.00 364.08 79.80 C 364.88 83.65 365.25 87.58 365.21 91.52 C 365.21 95.31 365.15 99.11 365.10 102.90 C 364.75 110.52 364.05 118.14 362.93 125.69 C 361.62 126.90 360.32 128.12 359.03 129.35 C 359.67 119.38 359.63 108.88 355.40 99.61 C 353.65 95.99 351.53 92.26 348.02 90.08 C 342.62 86.83 337.05 83.61 330.81 82.28 C 324.33 80.92 317.72 79.86 311.07 79.97 C 303.07 80.15 295.02 79.51 287.08 80.78 C 278.25 81.27 268.89 83.07 262.08 89.12 C 254.78 95.25 251.12 104.68 250.13 113.97 C 249.78 118.68 250.06 123.41 250.02 128.13 C 248.65 127.67 247.29 127.21 245.92 126.76 C 245.00 122.03 244.48 117.22 244.09 112.41 L 244.09 111.99 C 244.18 98.94 245.97 85.23 253.30 74.09 C 255.90 69.93 259.22 66.26 263.01 63.13 C 262.21 63.31 261.41 63.48 260.61 63.65 C 258.93 63.73 257.25 63.75 255.57 63.75 C 258.80 60.35 262.83 57.89 266.37 54.85 C 266.58 54.55 267.01 53.95 267.22 53.65 C 267.32 53.26 267.52 52.50 267.62 52.11 C 264.49 52.00 261.34 52.25 258.30 52.97 C 259.35 51.71 260.42 50.45 261.48 49.20 C 261.49 49.53 261.50 50.20 261.51 50.54 C 262.26 49.38 266.16 48.69 263.55 47.51 Z" />
<path fill="#a43b04" opacity="1.00" d=" M 490.22 258.73 C 493.65 258.50 497.11 258.77 500.38 259.92 L 498.59 257.86 C 501.30 259.19 504.86 259.75 506.29 262.76 C 509.02 267.90 510.71 274.92 506.83 279.92 C 504.30 283.41 499.83 284.06 496.01 285.30 C 494.87 285.20 492.59 285.00 491.45 284.91 C 494.70 283.75 499.10 282.76 499.77 278.72 C 500.64 273.48 499.36 267.91 496.80 263.31 C 494.53 259.73 489.87 260.53 486.30 260.69 C 487.59 260.01 488.89 259.34 490.22 258.73 Z" />
</g>
<g id="#6c4f31ff">
<path fill="#6c4f31" opacity="1.00" d=" M 258.30 52.97 C 261.34 52.25 264.49 52.00 267.62 52.11 C 267.52 52.50 267.32 53.26 267.22 53.65 C 266.00 52.47 264.26 53.03 262.98 53.78 C 260.56 54.77 258.16 55.82 255.74 56.82 C 255.86 56.36 256.10 55.44 256.22 54.98 C 256.74 54.14 257.43 53.48 258.30 52.97 Z" />
</g>
<g id="#938770ff">
<path fill="#938770" opacity="1.00" d=" M 262.98 53.78 C 264.26 53.03 266.00 52.47 267.22 53.65 C 267.01 53.95 266.58 54.55 266.37 54.85 C 265.88 54.88 264.91 54.96 264.42 54.99 C 264.06 54.69 263.34 54.08 262.98 53.78 Z" />
</g>
<g id="#5ca4a3ff">
<path fill="#5ca4a3" opacity="1.00" d=" M 255.74 56.82 C 258.16 55.82 260.56 54.77 262.98 53.78 C 263.34 54.08 264.06 54.69 264.42 54.99 C 262.50 56.33 260.62 57.72 258.70 59.05 C 257.09 58.47 255.48 57.90 253.88 57.33 C 254.65 56.54 255.42 55.75 256.22 54.98 C 256.10 55.44 255.86 56.36 255.74 56.82 Z" />
</g>
<g id="#6d593eff">
<path fill="#6d593e" opacity="1.00" d=" M 264.42 54.99 C 264.91 54.96 265.88 54.88 266.37 54.85 C 262.83 57.89 258.80 60.35 255.57 63.75 C 257.25 63.75 258.93 63.73 260.61 63.65 C 258.18 64.76 255.87 66.13 253.67 67.65 C 251.95 68.87 250.18 70.00 248.32 71.00 C 248.39 70.40 248.52 69.19 248.59 68.58 C 251.88 65.33 254.81 61.62 258.70 59.05 C 260.62 57.72 262.50 56.33 264.42 54.99 Z" />
</g>
<g id="#ffffffff">
<path fill="#ffffff" opacity="1.00" d=" M 352.71 55.09 C 366.26 55.21 379.81 55.21 393.36 55.10 C 393.18 58.06 393.03 61.02 393.04 63.98 C 393.09 68.70 393.15 73.42 393.13 78.13 C 393.12 79.74 393.11 81.35 393.11 82.96 C 393.09 84.06 393.09 85.16 393.10 86.26 C 393.11 87.27 393.12 89.30 393.13 90.31 C 393.17 93.43 393.23 96.54 393.24 99.66 C 393.23 101.15 393.22 102.64 393.21 104.14 C 393.19 135.30 393.53 166.45 393.61 197.61 C 380.88 197.61 368.15 197.62 355.42 197.85 C 352.21 197.89 349.01 198.08 345.80 198.13 C 341.06 197.75 336.29 197.91 331.54 197.87 C 332.30 196.40 333.11 194.95 333.92 193.51 C 335.31 193.54 336.70 193.58 338.10 193.61 C 336.93 193.34 335.77 193.07 334.61 192.80 C 335.51 192.27 336.42 191.74 337.34 191.22 C 337.36 190.58 337.40 189.95 337.43 189.31 C 339.76 186.18 341.93 182.93 344.03 179.64 C 358.74 179.64 373.47 179.90 388.18 179.52 C 373.60 179.00 359.01 179.52 344.43 179.25 C 345.69 176.82 346.96 174.40 348.20 171.96 C 359.12 171.92 370.05 171.66 380.97 171.75 C 383.73 171.76 386.49 171.54 389.20 171.04 C 384.41 168.93 379.08 170.16 374.03 169.89 C 366.13 169.60 358.20 170.44 350.33 169.48 C 363.21 168.47 376.16 169.75 389.04 168.75 C 387.86 167.88 386.59 167.03 385.05 167.18 C 373.60 167.04 362.14 167.72 350.70 167.01 C 351.94 164.45 353.01 161.82 354.06 159.18 C 365.50 159.11 376.94 159.18 388.38 159.13 C 388.37 158.69 388.35 157.80 388.34 157.35 C 388.32 156.55 388.29 154.94 388.27 154.13 C 379.87 154.28 371.46 153.90 363.08 154.43 C 364.00 151.58 364.97 148.76 365.93 145.93 C 367.59 145.94 369.27 145.94 370.95 145.94 C 376.78 145.89 382.61 145.92 388.45 145.81 C 388.28 145.02 388.12 144.22 387.96 143.43 C 388.26 125.00 388.24 106.56 387.93 88.13 C 380.68 88.14 373.43 88.28 366.18 88.14 C 366.19 88.69 366.19 89.78 366.19 90.32 C 368.47 91.06 370.79 91.93 372.41 93.80 C 370.15 92.63 367.69 91.99 365.21 91.52 C 365.25 87.58 364.88 83.65 364.08 79.80 C 371.32 79.60 378.56 79.62 385.80 79.70 C 385.88 78.47 385.97 77.23 386.06 76.00 C 378.53 76.15 370.95 75.56 363.46 76.62 C 363.19 75.42 362.92 74.23 362.60 73.05 C 368.42 73.23 374.26 73.05 380.09 73.07 C 379.99 71.67 379.91 70.27 379.85 68.87 L 379.93 68.41 C 373.62 68.57 367.31 68.57 361.00 68.58 C 358.93 63.71 356.27 59.03 352.71 55.09 M 344.07 181.94 L 344.08 182.97 C 358.75 183.04 373.42 183.00 388.08 182.95 L 388.17 181.84 C 373.47 181.64 358.77 181.84 344.07 181.94 M 343.46 185.60 C 348.94 186.31 354.48 185.84 359.99 185.94 C 369.51 185.74 379.06 186.32 388.55 185.54 C 387.17 184.73 385.57 184.49 384.01 184.54 C 373.34 184.62 362.67 184.65 352.00 184.65 C 349.14 184.72 346.10 184.25 343.46 185.60 M 343.66 187.18 C 343.87 187.57 344.28 188.35 344.49 188.75 C 356.32 189.33 368.20 188.62 380.05 188.83 C 383.15 188.68 386.66 189.48 389.31 187.42 C 383.58 186.34 377.75 187.02 371.97 186.90 C 362.53 187.02 353.09 186.65 343.66 187.18 M 343.52 190.38 C 344.78 191.35 346.38 191.45 347.92 191.45 C 359.64 191.42 371.37 191.32 383.09 191.40 C 384.98 191.36 387.02 191.47 388.66 190.32 C 381.78 189.79 374.88 190.19 368.00 190.07 C 359.84 190.22 351.66 189.76 343.52 190.38 M 343.50 193.17 C 345.47 194.30 347.79 194.05 349.97 194.08 C 360.98 193.93 371.99 194.00 382.99 194.03 C 385.07 194.04 387.15 193.80 389.21 193.44 C 383.16 192.55 377.03 193.15 370.95 193.02 C 361.80 193.13 352.64 192.65 343.50 193.17 Z" />
<path fill="#ffffff" opacity="1.00" d=" M 397.13 79.66 C 397.50 74.97 397.43 70.26 397.65 65.56 C 423.15 75.02 448.62 84.56 474.06 94.17 C 473.63 95.61 473.20 97.04 472.70 98.45 C 469.80 105.83 467.12 113.27 464.29 120.67 C 463.88 121.75 463.48 122.84 463.09 123.92 C 461.93 127.05 460.66 130.13 459.49 133.25 C 458.94 134.70 458.43 136.15 457.91 137.60 C 446.73 167.49 435.44 197.34 424.49 227.30 C 414.15 224.51 404.44 219.82 394.30 216.43 C 391.84 215.56 389.33 214.84 386.88 213.97 C 383.29 212.22 379.52 210.92 375.78 209.55 C 370.35 207.49 364.93 205.42 359.46 203.47 C 361.76 203.16 364.06 202.88 366.37 202.70 C 368.81 203.35 371.24 204.06 373.66 204.78 C 373.46 204.35 373.06 203.48 372.86 203.05 C 377.30 203.01 381.84 202.51 386.19 203.64 C 398.61 207.82 410.58 213.38 423.20 216.96 C 411.83 211.57 399.52 208.46 388.17 203.06 C 394.53 202.61 400.10 206.04 405.92 207.98 C 412.13 210.13 418.13 212.90 424.51 214.55 C 415.63 210.16 406.06 207.32 396.82 203.79 C 397.20 203.37 397.96 202.53 398.35 202.12 C 407.35 205.23 416.06 209.22 425.24 211.81 C 419.40 208.62 412.92 206.90 406.78 204.41 C 403.48 202.96 399.09 202.56 397.41 198.88 C 407.12 201.87 416.30 206.47 426.18 208.95 C 417.81 204.95 408.82 202.46 400.30 198.83 C 398.91 198.35 398.23 196.99 397.39 195.92 C 407.63 198.90 417.24 203.74 427.54 206.54 C 418.80 202.13 409.25 199.64 400.26 195.81 C 398.92 195.32 398.24 194.00 397.40 192.97 C 407.93 195.90 417.74 200.99 428.31 203.81 C 419.32 199.30 409.50 196.73 400.25 192.80 C 398.86 192.37 398.17 191.05 397.38 189.97 C 408.23 192.84 418.22 198.45 429.19 200.87 C 419.75 196.69 409.84 193.67 400.27 189.81 C 398.88 189.36 398.20 187.99 397.36 186.93 C 408.66 190.03 419.20 195.42 430.49 198.56 C 423.17 194.73 415.12 192.60 407.50 189.46 C 404.02 187.85 399.32 187.67 397.36 183.90 C 408.91 187.10 419.71 192.60 431.25 195.81 C 423.47 191.83 414.98 189.52 406.90 186.23 C 403.63 184.71 399.15 184.54 397.42 180.89 C 409.26 184.07 420.20 190.13 432.18 192.81 C 420.92 188.28 409.47 184.21 398.10 179.97 C 398.12 179.14 398.14 177.49 398.15 176.66 C 409.86 180.73 421.34 185.45 433.05 189.54 C 433.61 188.12 434.17 186.71 434.74 185.29 C 422.49 181.01 410.41 176.27 398.24 171.76 L 397.80 171.60 C 397.93 168.55 398.04 165.49 398.20 162.44 C 403.02 164.51 408.01 166.14 412.88 168.09 C 413.36 168.27 414.33 168.62 414.82 168.80 C 416.19 169.29 417.58 169.79 418.96 170.28 C 419.49 170.48 420.53 170.87 421.06 171.07 C 425.16 172.68 429.32 174.14 433.42 175.77 C 434.88 176.27 436.34 176.77 437.81 177.25 C 437.92 176.76 438.14 175.79 438.25 175.31 C 445.03 158.25 451.32 140.98 457.68 123.76 C 444.04 118.24 430.12 113.41 416.36 108.20 C 410.16 124.23 404.53 140.48 398.12 156.43 C 397.75 148.21 398.13 139.99 398.22 131.77 C 399.17 132.05 400.13 132.32 401.09 132.60 C 399.82 131.41 398.58 130.19 397.38 128.93 C 398.90 129.15 400.45 129.38 401.97 129.68 C 400.24 128.69 398.64 127.46 397.34 125.94 C 399.25 126.20 401.17 126.53 403.07 126.93 C 400.93 125.99 398.92 124.77 397.33 123.04 C 399.58 123.22 401.83 123.50 404.06 123.85 C 401.56 122.95 398.68 122.31 397.34 119.74 C 400.02 120.31 402.66 121.03 405.30 121.76 C 402.47 120.42 399.35 119.34 397.33 116.81 C 400.31 117.39 403.23 118.18 406.18 118.90 C 403.05 117.48 399.50 116.55 397.27 113.74 C 400.72 114.42 404.06 115.55 407.44 116.51 C 404.07 114.57 399.74 114.02 397.33 110.71 C 401.03 111.49 404.59 112.79 408.24 113.76 C 405.13 112.05 401.66 111.12 398.54 109.45 C 398.13 108.31 397.77 107.15 397.48 105.98 C 401.23 107.30 404.96 108.70 408.67 110.15 C 409.31 108.95 409.96 107.76 410.61 106.57 C 406.64 104.07 402.07 102.90 397.76 101.18 C 397.69 98.07 397.76 94.96 397.86 91.85 C 418.25 99.22 438.35 107.39 458.87 114.37 C 459.13 113.33 459.39 112.30 459.66 111.26 C 442.61 105.10 425.70 98.54 408.71 92.24 C 405.30 90.93 401.72 90.03 398.49 88.30 C 398.12 87.14 397.86 85.97 397.72 84.77 C 417.31 91.54 436.53 99.34 456.04 106.30 C 456.33 104.97 456.67 103.66 456.86 102.31 C 454.33 100.90 451.55 100.04 448.86 99.02 C 431.89 92.73 414.95 86.34 398.00 79.99 C 397.78 79.91 397.35 79.75 397.13 79.66 M 379.53 203.86 C 382.99 206.32 387.23 207.15 391.10 208.75 C 401.59 212.41 411.79 216.95 422.45 220.11 C 421.37 218.82 419.95 217.94 418.38 217.42 C 407.70 213.49 397.04 209.53 386.43 205.43 C 384.22 204.54 381.88 204.06 379.53 203.86 M 379.41 206.14 C 380.26 208.30 382.72 208.70 384.64 209.47 C 396.95 213.79 408.99 218.95 421.42 222.91 C 420.44 220.85 418.08 220.41 416.16 219.65 C 403.86 215.26 391.77 210.31 379.41 206.14 Z" />
<path fill="#ffffff" opacity="1.00" d=" M 476.04 101.60 C 484.45 109.65 491.95 118.58 500.20 126.78 C 510.72 136.91 520.18 148.07 530.67 158.22 C 535.60 163.18 540.48 168.20 545.02 173.53 C 540.12 178.11 535.26 182.74 530.25 187.21 C 537.02 218.72 543.61 250.27 550.38 281.78 C 550.74 283.68 550.78 285.62 550.86 287.56 C 549.59 287.77 548.33 287.99 547.07 288.23 C 502.11 297.79 457.12 307.19 412.20 316.94 C 405.89 288.07 399.81 259.14 393.76 230.21 L 393.51 228.75 C 394.75 229.81 396.00 230.89 397.17 232.04 C 400.69 241.85 401.10 252.51 404.63 262.30 C 403.63 253.09 400.35 244.28 399.62 235.04 C 400.50 236.33 401.69 237.52 402.09 239.09 C 404.08 246.54 404.59 254.38 407.40 261.60 C 406.34 253.92 404.35 246.41 402.86 238.80 C 403.40 239.14 404.47 239.80 405.00 240.14 L 405.52 241.89 C 407.20 248.27 408.11 254.83 409.76 261.22 C 409.90 254.76 407.45 248.67 406.81 242.31 C 411.36 247.19 410.16 254.50 412.84 260.29 C 412.38 255.55 411.03 250.94 410.70 246.19 C 414.15 249.76 413.55 255.09 415.62 259.35 C 415.27 255.96 414.62 252.61 413.92 249.28 C 416.36 252.11 417.51 255.66 418.38 259.22 C 418.36 257.35 418.33 255.47 418.44 253.59 C 418.97 254.39 420.04 255.99 420.57 256.79 C 423.33 260.03 427.58 262.45 428.37 266.97 C 430.70 277.97 433.01 288.98 435.30 299.99 C 435.76 302.23 436.47 304.41 437.27 306.55 C 435.41 292.90 430.91 279.68 429.57 265.96 C 430.59 267.53 431.75 269.11 432.13 271.00 C 434.72 282.72 436.86 294.55 439.72 306.20 C 438.76 293.70 434.41 281.72 432.83 269.30 C 433.90 270.71 435.14 272.10 435.56 273.88 C 438.22 284.29 439.45 295.06 442.75 305.29 C 441.19 293.87 437.90 282.74 436.01 271.36 C 436.50 271.01 437.47 270.30 437.95 269.95 C 438.92 276.73 440.60 283.38 441.97 290.09 C 443.07 295.16 443.69 300.38 445.73 305.20 C 443.93 292.74 440.03 280.66 438.65 268.15 C 434.01 263.26 429.07 258.66 424.45 253.75 C 424.06 253.30 423.27 252.40 422.88 251.95 C 419.80 248.25 416.42 244.83 412.99 241.46 C 410.50 238.82 407.86 236.32 405.26 233.79 C 404.92 233.43 404.24 232.72 403.90 232.36 C 401.44 229.70 398.91 227.11 396.46 224.45 C 395.80 223.70 395.15 222.93 394.52 222.17 C 396.05 222.50 397.59 222.84 399.12 223.24 C 401.89 225.28 404.50 227.54 407.01 229.90 C 406.28 228.59 405.55 227.28 404.83 225.98 C 410.13 227.46 415.60 229.33 418.96 234.02 C 418.50 232.95 418.04 231.89 417.60 230.82 C 421.24 232.13 425.33 232.98 428.08 235.94 C 435.06 243.05 441.80 250.42 449.29 257.01 C 442.75 248.53 434.09 241.94 427.26 233.76 C 427.63 228.82 431.02 224.68 431.88 219.79 C 433.33 220.82 434.78 221.86 436.21 222.92 C 434.56 221.03 433.21 218.89 432.38 216.51 C 434.43 217.86 436.37 219.36 438.26 220.93 C 436.24 218.70 434.32 216.30 433.48 213.36 C 435.84 215.08 438.02 217.02 440.26 218.91 C 438.54 216.68 436.66 214.60 434.68 212.62 C 435.08 211.58 435.50 210.54 435.94 209.52 C 445.99 219.70 455.36 230.58 465.85 240.31 C 467.33 241.65 468.88 239.44 470.30 238.98 C 460.02 228.29 450.07 217.27 439.48 206.88 C 438.31 207.69 437.14 208.50 436.01 209.36 C 437.43 203.74 439.70 198.41 442.13 193.17 C 442.56 193.27 443.43 193.47 443.86 193.58 C 443.52 192.27 443.17 190.96 442.85 189.66 C 443.86 190.36 444.88 191.08 445.90 191.79 C 445.16 190.02 444.41 188.25 443.69 186.48 C 445.08 187.57 446.46 188.68 447.85 189.78 C 447.74 189.52 447.50 189.00 447.39 188.73 C 446.35 187.07 445.40 185.36 444.55 183.60 C 446.51 184.93 448.40 186.37 450.24 187.87 C 448.37 185.65 446.67 183.26 445.63 180.52 C 447.95 182.21 450.12 184.09 452.30 185.94 C 450.16 183.32 447.83 180.76 446.54 177.57 C 449.36 179.43 451.80 181.77 454.34 183.98 C 452.10 180.86 448.90 178.37 447.66 174.62 C 450.85 176.67 453.41 179.51 456.25 181.99 C 453.94 178.46 450.51 175.82 448.44 172.12 C 452.62 173.48 454.96 177.43 458.30 180.02 C 456.27 176.70 453.08 174.37 450.75 171.31 C 450.69 170.66 450.56 169.36 450.49 168.71 C 454.08 171.72 456.88 175.62 460.89 178.13 C 457.90 174.57 454.44 171.45 451.28 168.04 C 451.85 166.61 452.41 165.19 452.95 163.75 C 454.30 164.89 455.66 166.03 456.97 167.23 C 459.36 170.01 461.86 172.80 465.21 174.44 C 462.98 171.03 459.86 168.37 457.00 165.52 C 457.00 165.10 457.02 164.26 457.02 163.85 C 457.54 164.18 458.58 164.84 459.10 165.17 C 461.45 167.99 463.89 170.87 467.31 172.44 C 465.00 169.06 461.87 166.41 459.02 163.52 C 459.00 163.12 458.96 162.32 458.95 161.92 C 460.38 163.05 461.81 164.20 463.17 165.44 C 464.83 167.53 466.93 169.21 469.29 170.47 C 467.46 167.80 465.16 165.54 462.77 163.39 C 461.89 161.87 460.99 160.36 460.10 158.85 C 461.43 159.94 462.77 161.03 464.06 162.19 C 466.06 164.76 468.43 167.08 471.41 168.50 C 469.37 165.47 466.66 163.01 464.04 160.51 C 464.03 160.11 464.02 159.30 464.01 158.89 C 464.53 159.23 465.57 159.90 466.08 160.24 C 468.09 162.78 470.36 165.20 473.38 166.55 C 471.41 163.45 468.65 161.02 466.02 158.51 C 466.01 158.12 465.97 157.32 465.96 156.93 C 467.38 158.06 468.79 159.22 470.13 160.46 C 471.61 162.13 473.42 163.47 475.39 164.51 C 473.71 162.32 471.81 160.31 469.95 158.28 C 468.77 156.81 467.57 155.37 466.23 154.05 C 463.31 151.45 460.35 148.78 458.55 145.24 C 462.02 146.66 464.47 149.55 467.20 151.99 C 465.12 149.11 462.71 146.51 460.21 144.01 C 460.52 142.91 460.83 141.81 461.14 140.71 L 461.59 141.16 C 467.26 146.62 472.35 152.67 477.96 158.18 C 479.29 159.90 481.01 157.73 481.99 156.70 C 481.62 155.34 480.65 154.28 479.73 153.26 C 474.23 147.47 468.34 142.05 463.01 136.10 C 464.26 133.07 465.36 129.99 466.33 126.87 L 466.74 127.26 C 475.30 135.68 483.05 144.88 491.68 153.25 C 502.22 163.49 511.61 174.84 522.40 184.84 C 522.84 183.57 524.74 182.11 523.16 180.93 C 516.65 173.72 509.43 167.17 502.81 160.06 C 491.54 147.53 479.18 136.04 467.89 123.54 L 468.08 122.97 C 470.64 115.81 473.38 108.72 476.04 101.60 M 471.01 121.78 C 476.19 127.98 482.09 133.56 487.76 139.31 C 494.28 145.75 500.23 152.73 506.69 159.23 C 512.27 164.85 517.91 170.42 523.26 176.27 C 524.26 175.24 525.33 174.25 526.13 173.04 C 518.94 164.83 510.68 157.61 503.43 149.43 C 494.26 139.32 484.26 130.01 475.05 119.93 C 473.68 117.85 471.72 120.44 471.01 121.78 M 470.42 155.43 C 471.90 158.42 473.97 161.51 477.41 162.39 C 475.62 159.58 473.24 157.20 470.42 155.43 M 486.38 161.02 C 480.68 166.79 474.96 172.55 469.12 178.17 C 463.08 183.07 457.84 188.81 452.21 194.15 C 450.96 195.33 450.03 196.77 449.23 198.27 C 448.11 199.21 447.09 200.26 446.04 201.27 C 455.78 211.58 466.08 221.36 475.46 232.01 C 476.54 230.99 477.66 230.02 478.64 228.90 C 482.09 227.10 484.88 224.35 487.68 221.70 C 494.44 215.14 501.10 208.47 507.80 201.84 C 510.90 198.76 514.53 196.24 517.45 192.96 C 507.35 182.07 497.25 171.15 486.38 161.02 M 453.42 166.73 C 455.98 170.40 458.71 174.72 463.11 176.26 C 460.60 172.45 457.32 169.11 453.42 166.73 M 515.77 204.29 C 520.78 228.96 526.34 253.52 531.29 278.20 C 532.70 277.93 534.12 277.66 535.54 277.38 C 530.58 252.63 525.19 227.96 519.88 203.28 C 518.51 203.62 517.13 203.95 515.77 204.29 M 509.93 208.89 C 510.52 213.39 511.74 217.78 512.59 222.23 C 517.16 243.16 521.31 264.19 526.09 285.08 C 527.10 284.72 528.11 284.37 529.13 284.03 C 524.81 263.01 520.21 242.05 515.82 221.04 C 514.52 215.71 513.89 210.21 512.06 205.01 C 511.28 206.19 509.37 207.19 509.93 208.89 M 498.08 218.27 C 499.86 225.78 501.15 233.39 503.06 240.87 C 504.45 240.32 506.08 240.18 507.24 239.18 C 505.42 231.07 503.94 222.88 501.88 214.82 C 500.60 215.96 499.34 217.11 498.08 218.27 M 496.24 230.03 C 497.32 234.12 497.32 238.65 499.78 242.25 C 499.29 234.85 497.24 227.61 495.54 220.41 C 494.14 223.53 495.75 226.89 496.24 230.03 M 443.38 222.45 C 444.21 223.94 445.10 225.42 446.29 226.65 C 451.20 231.75 456.22 236.73 461.18 241.78 C 462.21 242.94 463.61 243.62 465.05 244.15 C 461.58 239.57 457.25 235.75 453.28 231.62 C 449.96 228.59 447.19 224.92 443.38 222.45 M 492.19 223.52 C 492.99 228.36 494.10 233.15 495.01 237.98 C 495.25 239.65 496.01 241.16 497.01 242.50 C 496.80 237.78 495.25 233.28 494.54 228.64 C 494.06 226.81 494.23 224.41 492.19 223.52 M 441.34 224.49 C 444.68 230.00 449.84 234.06 454.17 238.75 C 457.02 241.29 459.22 244.81 462.94 246.17 C 457.93 239.86 451.84 234.51 446.29 228.69 C 444.82 227.09 443.15 225.69 441.34 224.49 M 490.01 225.49 C 490.20 229.72 491.43 233.79 492.18 237.94 C 492.56 239.88 492.91 241.92 494.18 243.52 C 494.17 240.05 493.42 236.66 492.66 233.30 C 492.02 230.62 491.88 227.67 490.01 225.49 M 439.38 226.60 C 441.99 231.17 446.20 234.46 449.73 238.27 C 453.29 241.59 456.35 245.48 460.40 248.23 C 458.22 244.07 454.41 241.18 451.29 237.79 C 447.33 234.05 443.91 229.69 439.38 226.60 M 432.45 227.53 C 435.65 233.11 440.88 237.13 445.18 241.83 C 448.93 245.26 452.09 249.37 456.33 252.24 C 455.61 250.83 454.86 249.41 453.76 248.26 C 448.23 242.42 442.37 236.91 436.81 231.11 C 435.49 229.76 433.99 228.61 432.45 227.53 M 436.32 227.47 C 439.52 233.13 444.91 237.09 449.23 241.86 C 452.30 244.65 454.77 248.17 458.46 250.22 C 455.90 245.72 451.71 242.51 448.28 238.73 C 444.28 234.99 440.87 230.57 436.32 227.47 M 490.19 243.02 C 490.57 242.99 491.32 242.93 491.69 242.90 C 490.69 237.79 489.82 232.65 488.42 227.63 C 486.89 232.74 489.73 237.90 490.19 243.02 M 430.51 229.51 C 431.82 232.64 434.40 234.88 436.72 237.25 C 442.55 242.95 447.91 249.23 454.32 254.28 C 453.12 251.47 450.86 249.39 448.78 247.24 C 442.71 241.32 437.14 234.81 430.51 229.51 M 484.98 230.40 C 486.07 235.10 485.79 240.57 488.84 244.52 C 487.82 239.83 488.28 234.17 484.98 230.40 M 413.48 232.22 C 412.76 233.43 414.60 235.25 415.83 234.57 C 416.58 233.33 414.71 231.52 413.48 232.22 M 428.59 231.68 C 429.34 233.12 430.15 234.56 431.29 235.74 C 436.78 241.57 442.62 247.05 448.15 252.85 C 449.40 254.14 450.81 255.27 452.29 256.31 C 450.93 252.75 447.71 250.51 445.26 247.77 C 439.79 242.33 434.76 236.34 428.59 231.68 M 411.31 233.52 C 410.58 234.86 412.34 237.15 413.82 236.54 C 414.39 235.22 412.73 233.09 411.31 233.52 M 482.85 232.37 C 483.15 236.51 483.22 241.10 485.93 244.51 C 485.32 240.40 485.22 235.93 482.85 232.37 M 423.47 234.55 C 426.18 239.33 430.63 242.72 434.28 246.73 C 438.72 250.88 442.57 255.70 447.49 259.31 C 444.64 254.40 440.06 250.89 436.29 246.74 C 431.98 242.72 428.25 238.05 423.47 234.55 M 480.20 234.72 C 480.79 238.37 480.77 242.44 483.11 245.51 C 482.62 241.89 483.01 237.49 480.20 234.72 M 421.34 236.53 C 425.13 242.88 431.22 247.41 436.21 252.78 C 439.31 255.73 441.96 259.19 445.56 261.58 C 443.35 256.99 439.06 253.99 435.79 250.23 C 431.01 245.62 426.71 240.46 421.34 236.53 M 478.05 236.49 C 478.29 239.74 477.62 244.10 480.59 246.31 C 480.23 242.94 479.83 239.46 478.05 236.49 M 418.41 237.50 C 421.05 242.37 425.54 245.81 429.21 249.86 C 433.40 253.65 436.80 258.35 441.60 261.42 C 440.25 258.59 437.98 256.43 435.80 254.26 C 429.98 248.71 424.82 242.38 418.41 237.50 M 416.38 239.49 C 419.72 245.33 425.27 249.45 429.76 254.36 C 433.03 257.46 435.82 261.11 439.66 263.56 C 436.36 257.71 430.80 253.63 426.33 248.72 C 423.04 245.61 420.21 241.98 416.38 239.49 M 475.25 239.53 C 475.76 241.91 475.33 245.10 477.79 246.49 C 477.27 244.15 477.85 240.74 475.25 239.53 M 473.28 242.52 C 472.51 243.77 473.02 245.80 474.27 246.56 C 475.77 246.00 474.85 242.35 473.28 242.52 M 471.13 244.46 C 470.18 245.61 470.39 246.30 471.76 246.56 C 472.70 245.40 472.49 244.70 471.13 244.46 M 460.99 256.03 C 459.28 256.18 458.09 257.46 456.85 258.48 C 455.67 259.45 454.50 260.42 453.34 261.39 C 454.26 266.07 455.36 270.70 456.26 275.38 L 457.35 274.87 C 457.18 275.48 456.85 276.71 456.69 277.32 C 457.03 278.87 457.40 280.43 457.86 281.96 C 457.84 282.44 457.80 283.40 457.77 283.88 C 459.74 289.23 460.06 295.03 461.70 300.46 C 465.22 300.76 468.60 299.60 472.01 298.94 C 485.75 296.28 499.35 292.99 513.09 290.36 C 514.47 290.01 515.96 289.88 517.22 289.16 C 517.83 287.88 517.08 286.37 517.01 285.04 C 514.25 272.01 511.29 259.03 508.69 245.98 C 492.77 249.25 476.91 252.80 460.99 256.03 M 422.03 263.58 C 423.18 274.19 426.26 284.50 428.22 294.99 C 429.42 299.40 429.26 304.35 431.93 308.24 C 431.92 304.06 430.58 300.06 429.79 296.00 C 427.99 286.98 425.96 278.02 424.15 269.01 C 423.84 267.06 423.06 265.24 422.03 263.58 M 425.24 267.78 C 427.88 279.84 430.49 291.92 432.93 304.03 C 433.06 305.44 433.81 306.62 434.94 307.45 C 432.18 292.72 429.01 278.05 425.64 263.46 C 424.68 264.75 424.95 266.32 425.24 267.78 M 418.99 264.46 C 420.86 275.39 423.54 286.16 425.68 297.04 C 426.70 300.89 426.76 305.14 429.04 308.55 C 428.94 306.68 428.84 304.82 428.45 302.99 C 425.86 291.36 423.45 279.69 421.03 268.03 C 420.90 266.57 420.01 265.43 418.99 264.46 M 413.82 265.45 C 413.90 270.04 415.14 274.48 416.08 278.94 C 418.11 288.30 420.05 297.69 422.03 307.07 C 422.23 308.16 422.82 309.00 423.82 309.57 C 421.42 296.39 418.30 283.34 415.66 270.20 C 415.30 268.53 415.03 266.76 413.82 265.45 M 416.29 265.35 C 418.83 279.98 422.50 294.40 425.21 309.01 C 425.59 308.97 426.33 308.89 426.71 308.85 C 423.99 295.81 421.04 282.83 418.47 269.76 C 418.06 268.15 417.95 266.19 416.29 265.35 M 407.99 266.51 C 409.20 276.11 411.89 285.47 413.70 294.97 C 415.16 300.39 415.36 306.19 417.81 311.31 C 417.79 309.24 417.74 307.15 417.26 305.13 C 414.98 294.84 412.85 284.52 410.66 274.22 C 410.06 271.56 409.95 268.61 407.99 266.51 M 411.02 266.36 C 411.00 270.95 412.52 275.32 413.37 279.78 C 414.99 287.99 416.95 296.12 418.49 304.35 C 418.97 306.52 419.09 309.03 421.03 310.51 C 419.17 299.60 416.55 288.81 414.40 277.95 C 413.31 274.08 413.39 269.76 411.02 266.36 M 405.09 267.59 C 407.37 280.09 410.36 292.47 412.83 304.94 C 413.29 307.21 413.60 309.64 415.13 311.49 C 415.04 309.54 414.90 307.59 414.52 305.68 C 411.93 293.79 409.31 281.91 406.95 269.97 C 406.81 268.83 406.19 268.04 405.09 267.59 M 442.07 272.24 C 444.63 282.76 446.52 293.44 448.99 303.99 C 450.33 303.60 451.67 303.22 453.02 302.84 C 451.14 291.41 448.56 280.08 445.92 268.81 C 444.63 269.94 443.35 271.09 442.07 272.24 Z" />
</g>
<g id="#409ba9ff">
<path fill="#409ba9" opacity="1.00" d=" M 393.36 55.10 C 393.77 56.60 394.15 58.10 394.56 59.61 C 396.54 60.94 398.09 62.77 397.66 65.33 C 396.11 64.88 394.58 64.43 393.04 63.98 C 393.03 61.02 393.18 58.06 393.36 55.10 Z" />
</g>
<g id="#61a1a0ff">
<path fill="#61a1a0" opacity="1.00" d=" M 260.61 63.65 C 261.41 63.48 262.21 63.31 263.01 63.13 C 259.22 66.26 255.90 69.93 253.30 74.09 C 245.97 85.23 244.18 98.94 244.09 111.99 C 242.35 111.93 240.61 111.86 238.88 111.79 C 240.31 111.55 241.74 111.30 243.18 111.05 C 243.54 104.36 242.50 97.43 244.90 91.00 C 246.68 83.04 250.06 75.40 255.18 69.00 C 254.80 68.66 254.05 67.99 253.67 67.65 C 255.87 66.13 258.18 64.76 260.61 63.65 Z" />
</g>
<g id="#c7c5c6ff">
<path fill="#c7c5c6" opacity="1.00" d=" M 393.04 63.98 C 394.58 64.43 396.11 64.88 397.66 65.33 L 397.65 65.56 C 397.43 70.26 397.50 74.97 397.13 79.66 C 395.79 79.15 394.46 78.65 393.13 78.13 C 393.15 73.42 393.09 68.70 393.04 63.98 Z" />
<path fill="#c7c5c6" opacity="1.00" d=" M 393.13 90.31 C 394.70 90.62 396.27 90.94 397.86 91.25 L 397.86 91.85 C 397.76 94.96 397.69 98.07 397.76 101.18 C 396.25 100.66 394.74 100.16 393.24 99.66 C 393.23 96.54 393.17 93.43 393.13 90.31 Z" />
<path fill="#c7c5c6" opacity="1.00" d=" M 405.26 233.79 C 407.86 236.32 410.50 238.82 412.99 241.46 C 413.08 244.09 413.26 246.73 413.92 249.28 C 414.62 252.61 415.27 255.96 415.62 259.35 C 413.55 255.09 414.15 249.76 410.70 246.19 C 411.03 250.94 412.38 255.55 412.84 260.29 C 410.16 254.50 411.36 247.19 406.81 242.31 C 407.45 248.67 409.90 254.76 409.76 261.22 C 408.11 254.83 407.20 248.27 405.52 241.89 C 406.05 239.20 405.98 236.43 405.26 233.79 Z" />
</g>
<g id="#d7141cff">
<path fill="#d7141c" opacity="1.00" d=" M 361.00 68.58 C 367.31 68.57 373.62 68.57 379.93 68.41 L 379.85 68.87 C 379.51 69.86 379.17 70.84 378.82 71.83 C 373.30 71.94 367.78 71.97 362.27 72.06 C 361.85 70.89 361.46 69.73 361.00 68.58 Z" />
</g>
<g id="#ac2229ff">
<path fill="#ac2229" opacity="1.00" d=" M 378.82 71.83 C 379.17 70.84 379.51 69.86 379.85 68.87 C 379.91 70.27 379.99 71.67 380.09 73.07 C 374.26 73.05 368.42 73.23 362.60 73.05 L 362.27 72.06 C 367.78 71.97 373.30 71.94 378.82 71.83 Z" />
</g>
<g id="#dadadaff">
<path fill="#dadada" opacity="1.00" d=" M 363.46 76.62 C 370.95 75.56 378.53 76.15 386.06 76.00 C 385.97 77.23 385.88 78.47 385.80 79.70 C 378.56 79.62 371.32 79.60 364.08 79.80 C 363.93 79.00 363.62 77.41 363.46 76.62 Z" />
<path fill="#dadada" opacity="1.00" d=" M 393.11 82.96 C 394.64 83.47 396.17 83.97 397.71 84.47 L 397.72 84.77 C 397.86 85.97 398.12 87.14 398.49 88.30 C 401.72 90.03 405.30 90.93 408.71 92.24 C 425.70 98.54 442.61 105.10 459.66 111.26 C 459.39 112.30 459.13 113.33 458.87 114.37 C 438.35 107.39 418.25 99.22 397.86 91.85 L 397.86 91.25 C 398.33 88.12 395.70 86.78 393.10 86.26 C 393.09 85.16 393.09 84.06 393.11 82.96 Z" />
<path fill="#dadada" opacity="1.00" d=" M 466.74 127.26 C 467.11 126.01 467.49 124.77 467.89 123.54 C 479.18 136.04 491.54 147.53 502.81 160.06 C 509.43 167.17 516.65 173.72 523.16 180.93 C 524.74 182.11 522.84 183.57 522.40 184.84 C 511.61 174.84 502.22 163.49 491.68 153.25 C 483.05 144.88 475.30 135.68 466.74 127.26 Z" />
<path fill="#dadada" opacity="1.00" d=" M 343.52 190.38 C 351.66 189.76 359.84 190.22 368.00 190.07 C 374.88 190.19 381.78 189.79 388.66 190.32 C 387.02 191.47 384.98 191.36 383.09 191.40 C 371.37 191.32 359.64 191.42 347.92 191.45 C 346.38 191.45 344.78 191.35 343.52 190.38 Z" />
<path fill="#dadada" opacity="1.00" d=" M 509.93 208.89 C 509.37 207.19 511.28 206.19 512.06 205.01 C 513.89 210.21 514.52 215.71 515.82 221.04 C 520.21 242.05 524.81 263.01 529.13 284.03 C 528.11 284.37 527.10 284.72 526.09 285.08 C 521.31 264.19 517.16 243.16 512.59 222.23 C 511.74 217.78 510.52 213.39 509.93 208.89 Z" />
<path fill="#dadada" opacity="1.00" d=" M 423.47 234.55 C 428.25 238.05 431.98 242.72 436.29 246.74 C 440.06 250.89 444.64 254.40 447.49 259.31 C 442.57 255.70 438.72 250.88 434.28 246.73 C 430.63 242.72 426.18 239.33 423.47 234.55 Z" />
</g>
<g id="#2d8b90ff">
<path fill="#2d8b90" opacity="1.00" d=" M 393.13 78.13 C 394.46 78.65 395.79 79.15 397.13 79.66 C 397.35 79.75 397.78 79.91 398.00 79.99 C 397.88 81.49 397.79 82.98 397.71 84.47 C 396.17 83.97 394.64 83.47 393.11 82.96 C 393.11 81.35 393.12 79.74 393.13 78.13 Z" />
</g>
<g id="#ebb086ff">
<path fill="#ebb086" opacity="1.00" d=" M 287.08 80.78 C 295.02 79.51 303.07 80.15 311.07 79.97 C 317.72 79.86 324.33 80.92 330.81 82.28 C 337.05 83.61 342.62 86.83 348.02 90.08 C 351.53 92.26 353.65 95.99 355.40 99.61 C 359.63 108.88 359.67 119.38 359.03 129.35 C 360.32 128.12 361.62 126.90 362.93 125.69 C 364.05 118.14 364.75 110.52 365.10 102.90 C 368.94 103.25 374.13 101.72 376.74 105.40 C 378.18 109.22 377.88 113.42 378.55 117.40 C 379.35 114.47 380.02 111.50 380.55 108.50 C 382.74 111.65 381.63 115.54 379.47 118.37 C 373.63 126.81 368.88 136.08 365.93 145.93 C 364.97 148.76 364.00 151.58 363.08 154.43 C 360.67 154.61 358.26 154.69 355.85 154.74 C 355.59 155.37 355.08 156.63 354.83 157.26 C 354.63 157.74 354.25 158.70 354.06 159.18 C 353.01 161.82 351.94 164.45 350.70 167.01 C 349.88 168.67 349.03 170.31 348.20 171.96 C 346.96 174.40 345.69 176.82 344.43 179.25 C 359.01 179.52 373.60 179.00 388.18 179.52 C 373.47 179.90 358.74 179.64 344.03 179.64 C 341.93 182.93 339.76 186.18 337.43 189.31 C 337.40 189.95 337.36 190.58 337.34 191.22 C 336.42 191.74 335.51 192.27 334.61 192.80 C 335.77 193.07 336.93 193.34 338.10 193.61 C 336.70 193.58 335.31 193.54 333.92 193.51 C 333.11 194.95 332.30 196.40 331.54 197.87 C 331.37 198.22 331.02 198.92 330.85 199.27 C 330.37 200.52 329.94 201.78 329.56 203.06 C 328.45 206.77 328.06 210.76 329.23 214.51 C 322.66 221.10 314.17 225.15 305.74 228.81 C 305.07 228.80 303.74 228.77 303.07 228.76 C 295.93 225.65 288.57 222.49 282.68 217.26 C 287.76 214.36 293.16 211.86 298.98 210.95 C 308.51 209.40 318.18 209.11 327.74 207.81 C 328.22 204.85 328.66 201.88 329.05 198.90 C 322.29 203.08 315.16 207.33 307.01 207.80 C 295.32 208.85 283.91 203.40 276.00 195.00 C 267.56 186.28 262.25 175.19 256.78 164.51 C 255.15 161.29 254.44 157.69 252.72 154.52 C 250.60 154.39 248.47 154.59 246.35 154.66 C 246.25 154.31 246.05 153.61 245.95 153.26 C 243.99 145.73 241.00 138.54 238.67 131.13 C 237.10 126.41 235.23 121.12 237.30 116.25 C 238.38 113.47 241.67 113.30 244.09 112.41 C 244.48 117.22 245.00 122.03 245.92 126.76 C 247.29 127.21 248.65 127.67 250.02 128.13 C 250.06 123.41 249.78 118.68 250.13 113.97 C 251.12 104.68 254.78 95.25 262.08 89.12 C 268.89 83.07 278.25 81.27 287.08 80.78 Z" />
<path fill="#ebb086" opacity="1.00" d=" M 472.58 190.56 C 475.96 185.37 481.96 182.82 487.52 180.64 C 485.79 187.83 489.93 194.67 494.22 200.09 C 493.04 201.63 491.86 203.19 490.70 204.75 C 490.18 204.92 489.14 205.27 488.63 205.44 L 487.45 205.83 C 483.29 207.55 477.18 206.38 474.89 211.10 C 475.61 213.22 476.85 215.11 477.99 217.03 C 477.02 217.60 476.02 218.13 475.04 218.66 C 471.17 217.80 466.97 216.83 464.20 213.77 C 461.28 210.97 460.26 206.90 459.69 203.04 C 460.49 202.10 461.31 201.18 462.13 200.26 C 464.14 201.21 466.41 203.45 468.67 201.79 C 471.24 198.95 471.04 194.77 472.11 191.27 L 472.58 190.56 Z" />
<path fill="#ebb086" opacity="1.00" d=" M 474.80 267.93 C 479.22 264.52 482.17 259.16 487.79 257.48 C 488.39 257.79 489.61 258.42 490.22 258.73 C 488.89 259.34 487.59 260.01 486.30 260.69 C 489.87 260.53 494.53 259.73 496.80 263.31 C 499.36 267.91 500.64 273.48 499.77 278.72 C 499.10 282.76 494.70 283.75 491.45 284.91 C 492.59 285.00 494.87 285.20 496.01 285.30 C 492.30 288.74 487.26 286.75 483.36 284.80 C 478.01 282.04 471.06 282.96 466.92 277.99 C 467.05 277.50 467.30 276.53 467.43 276.04 C 467.90 271.88 472.03 270.36 474.80 267.93 Z" />
</g>
<g id="#2db0b7ff">
<path fill="#2db0b7" opacity="1.00" d=" M 398.00 79.99 C 414.95 86.34 431.89 92.73 448.86 99.02 C 451.55 100.04 454.33 100.90 456.86 102.31 C 456.67 103.66 456.33 104.97 456.04 106.30 C 436.53 99.34 417.31 91.54 397.72 84.77 L 397.71 84.47 C 397.79 82.98 397.88 81.49 398.00 79.99 Z" />
</g>
<g id="#b0afb0ff">
<path fill="#b0afb0" opacity="1.00" d=" M 393.10 86.26 C 395.70 86.78 398.33 88.12 397.86 91.25 C 396.27 90.94 394.70 90.62 393.13 90.31 C 393.12 89.30 393.11 87.27 393.10 86.26 Z" />
</g>
<g id="#edededff">
<path fill="#ededed" opacity="1.00" d=" M 366.18 88.14 C 373.43 88.28 380.68 88.14 387.93 88.13 C 388.24 106.56 388.26 125.00 387.96 143.43 C 385.19 137.83 378.93 135.84 373.25 134.65 C 372.83 138.47 372.02 142.25 370.95 145.94 C 369.27 145.94 367.59 145.94 365.93 145.93 C 368.88 136.08 373.63 126.81 379.47 118.37 C 381.63 115.54 382.74 111.65 380.55 108.50 C 380.79 105.60 381.40 102.14 379.26 99.78 C 376.99 97.76 374.53 95.98 372.41 93.80 C 370.79 91.93 368.47 91.06 366.19 90.32 C 366.19 89.78 366.19 88.69 366.18 88.14 Z" />
<path fill="#ededed" opacity="1.00" d=" M 416.36 108.20 C 430.12 113.41 444.04 118.24 457.68 123.76 C 451.32 140.98 445.03 158.25 438.25 175.31 C 438.01 168.79 433.26 163.66 427.76 160.75 C 425.28 164.03 423.33 167.66 421.06 171.07 C 420.53 170.87 419.49 170.48 418.96 170.28 C 419.91 166.93 421.11 163.66 422.23 160.36 C 421.84 160.10 421.06 159.59 420.66 159.33 C 422.55 159.20 424.44 158.98 426.33 158.75 C 430.94 151.74 439.61 148.99 444.15 141.98 C 443.86 141.32 443.28 140.00 443.00 139.34 C 444.27 136.92 445.19 134.34 446.13 131.79 C 444.16 128.47 442.23 125.13 440.19 121.86 C 437.31 117.86 431.91 117.77 427.47 117.98 C 426.53 118.91 425.60 119.83 424.67 120.75 C 423.17 121.11 421.29 120.88 420.26 122.27 C 418.99 124.57 418.35 127.15 417.53 129.63 C 413.50 130.55 413.72 135.35 414.70 138.45 C 416.42 143.48 416.90 148.78 417.30 154.05 C 417.32 156.19 419.10 157.65 420.22 159.30 C 419.74 159.50 418.78 159.92 418.30 160.13 C 417.84 163.27 416.31 166.06 414.82 168.80 C 414.33 168.62 413.36 168.27 412.88 168.09 C 413.50 164.07 414.08 160.05 414.77 156.04 C 409.09 154.46 402.34 154.88 398.03 159.35 C 398.05 158.62 398.10 157.16 398.12 156.43 C 404.53 140.48 410.16 124.23 416.36 108.20 Z" />
<path fill="#ededed" opacity="1.00" d=" M 486.38 161.02 C 497.25 171.15 507.35 182.07 517.45 192.96 C 514.53 196.24 510.90 198.76 507.80 201.84 C 501.10 208.47 494.44 215.14 487.68 221.70 C 484.88 224.35 482.09 227.10 478.64 228.90 C 478.84 227.51 479.02 226.11 479.17 224.71 C 481.11 223.14 483.08 221.55 484.63 219.57 C 489.99 212.98 495.84 206.79 501.09 200.12 C 503.19 196.65 504.66 192.34 503.62 188.29 C 502.47 183.41 497.94 180.62 494.62 177.28 C 491.96 174.53 487.87 174.53 484.38 175.22 C 476.16 177.80 470.10 184.25 464.25 190.23 C 461.60 192.80 459.89 196.30 456.64 198.23 C 454.17 198.12 451.69 198.00 449.23 198.27 C 450.03 196.77 450.96 195.33 452.21 194.15 C 457.84 188.81 463.08 183.07 469.12 178.17 C 474.96 172.55 480.68 166.79 486.38 161.02 Z" />
<path fill="#ededed" opacity="1.00" d=" M 273.96 222.51 C 277.42 221.21 278.74 217.70 279.71 214.44 C 280.69 215.38 281.67 216.34 282.68 217.26 C 288.57 222.49 295.93 225.65 303.07 228.76 C 301.43 229.63 299.87 230.66 298.47 231.87 C 296.90 233.47 295.44 235.16 293.98 236.86 C 295.59 239.27 297.19 241.70 298.73 244.17 C 296.23 263.33 294.35 282.57 291.60 301.70 C 286.73 288.12 284.10 273.90 281.34 259.78 C 279.71 251.12 276.84 242.70 275.95 233.90 C 275.59 230.14 273.73 226.64 273.97 222.79 L 273.96 222.51 Z" />
<path fill="#ededed" opacity="1.00" d=" M 305.74 228.81 C 314.17 225.15 322.66 221.10 329.23 214.51 C 330.16 217.87 331.86 221.22 335.18 222.77 C 334.98 224.60 334.87 226.47 334.28 228.23 C 332.24 234.10 332.03 240.38 330.36 246.34 C 325.92 263.05 324.18 280.42 318.52 296.80 L 318.02 298.20 C 315.31 280.28 313.71 262.20 311.25 244.25 C 312.64 242.03 314.07 239.84 315.52 237.67 C 313.16 234.73 310.86 231.51 307.51 229.63 C 307.07 229.42 306.18 229.01 305.74 228.81 Z" />
<path fill="#ededed" opacity="1.00" d=" M 460.99 256.03 C 476.91 252.80 492.77 249.25 508.69 245.98 C 511.29 259.03 514.25 272.01 517.01 285.04 C 517.08 286.37 517.83 287.88 517.22 289.16 C 515.96 289.88 514.47 290.01 513.09 290.36 C 499.35 292.99 485.75 296.28 472.01 298.94 C 468.60 299.60 465.22 300.76 461.70 300.46 C 462.18 300.32 463.13 300.05 463.61 299.91 C 465.71 298.09 467.41 295.89 468.91 293.57 C 469.64 290.42 470.09 287.20 470.14 283.97 C 466.02 283.91 461.89 283.90 457.77 283.88 C 457.80 283.40 457.84 282.44 457.86 281.96 C 460.58 280.63 463.56 280.08 466.51 279.51 C 466.61 279.13 466.82 278.37 466.92 277.99 C 471.06 282.96 478.01 282.04 483.36 284.80 C 487.26 286.75 492.30 288.74 496.01 285.30 C 499.83 284.06 504.30 283.41 506.83 279.92 C 510.71 274.92 509.02 267.90 506.29 262.76 C 504.86 259.75 501.30 259.19 498.59 257.86 L 500.38 259.92 C 497.11 258.77 493.65 258.50 490.22 258.73 C 489.61 258.42 488.39 257.79 487.79 257.48 C 482.17 259.16 479.22 264.52 474.80 267.93 C 472.03 270.36 467.90 271.88 467.43 276.04 C 463.85 276.54 460.27 276.99 456.69 277.32 C 456.85 276.71 457.18 275.48 457.35 274.87 C 460.55 273.31 463.92 272.13 467.11 270.53 C 465.47 265.30 461.59 261.11 456.85 258.48 C 458.09 257.46 459.28 256.18 460.99 256.03 Z" />
</g>
<g id="#bf7228ff">
<path fill="#bf7228" opacity="1.00" d=" M 365.21 91.52 C 367.69 91.99 370.15 92.63 372.41 93.80 C 374.53 95.98 376.99 97.76 379.26 99.78 C 381.40 102.14 380.79 105.60 380.55 108.50 C 380.02 111.50 379.35 114.47 378.55 117.40 C 377.88 113.42 378.18 109.22 376.74 105.40 C 374.13 101.72 368.94 103.25 365.10 102.90 C 365.15 99.11 365.21 95.31 365.21 91.52 Z" />
</g>
<g id="#c6c5c6ff">
<path fill="#c6c5c6" opacity="1.00" d=" M 464.29 120.67 C 467.12 113.27 469.80 105.83 472.70 98.45 C 473.81 99.50 474.92 100.55 476.04 101.60 C 473.38 108.72 470.64 115.81 468.08 122.97 C 466.81 122.20 465.55 121.43 464.29 120.67 Z" />
</g>
<g id="#1c5b8fff">
<path fill="#1c5b8f" opacity="1.00" d=" M 393.24 99.66 C 394.74 100.16 396.25 100.66 397.76 101.18 C 397.69 102.78 397.60 104.38 397.48 105.98 C 396.05 105.36 394.63 104.75 393.21 104.14 C 393.22 102.64 393.23 101.15 393.24 99.66 Z" />
</g>
<g id="#1376b8ff">
<path fill="#1376b8" opacity="1.00" d=" M 397.76 101.18 C 402.07 102.90 406.64 104.07 410.61 106.57 C 409.96 107.76 409.31 108.95 408.67 110.15 C 404.96 108.70 401.23 107.30 397.48 105.98 C 397.60 104.38 397.69 102.78 397.76 101.18 Z" />
</g>
<g id="#c5c4c5ff">
<path fill="#c5c4c5" opacity="1.00" d=" M 393.21 104.14 C 394.63 104.75 396.05 105.36 397.48 105.98 C 397.77 107.15 398.13 108.31 398.54 109.45 C 401.66 111.12 405.13 112.05 408.24 113.76 C 404.59 112.79 401.03 111.49 397.33 110.71 C 399.74 114.02 404.07 114.57 407.44 116.51 C 404.06 115.55 400.72 114.42 397.27 113.74 C 399.50 116.55 403.05 117.48 406.18 118.90 C 403.23 118.18 400.31 117.39 397.33 116.81 C 399.35 119.34 402.47 120.42 405.30 121.76 C 402.66 121.03 400.02 120.31 397.34 119.74 C 398.68 122.31 401.56 122.95 404.06 123.85 C 401.83 123.50 399.58 123.22 397.33 123.04 C 398.92 124.77 400.93 125.99 403.07 126.93 C 401.17 126.53 399.25 126.20 397.34 125.94 C 398.64 127.46 400.24 128.69 401.97 129.68 C 400.45 129.38 398.90 129.15 397.38 128.93 C 398.58 130.19 399.82 131.41 401.09 132.60 C 400.13 132.32 399.17 132.05 398.22 131.77 C 398.13 139.99 397.75 148.21 398.12 156.43 C 398.10 157.16 398.05 158.62 398.03 159.35 C 397.57 159.81 396.64 160.75 396.18 161.21 C 396.68 161.52 397.69 162.13 398.20 162.44 C 398.04 165.49 397.93 168.55 397.80 171.60 C 396.42 171.09 395.04 170.59 393.67 170.08 C 393.67 171.70 393.68 173.32 393.70 174.94 C 395.18 175.41 396.66 175.87 398.15 176.33 L 398.15 176.66 C 398.14 177.49 398.12 179.14 398.10 179.97 C 409.47 184.21 420.92 188.28 432.18 192.81 C 420.20 190.13 409.26 184.07 397.42 180.89 C 399.15 184.54 403.63 184.71 406.90 186.23 C 414.98 189.52 423.47 191.83 431.25 195.81 C 419.71 192.60 408.91 187.10 397.36 183.90 C 399.32 187.67 404.02 187.85 407.50 189.46 C 415.12 192.60 423.17 194.73 430.49 198.56 C 419.20 195.42 408.66 190.03 397.36 186.93 C 398.20 187.99 398.88 189.36 400.27 189.81 C 409.84 193.67 419.75 196.69 429.19 200.87 C 418.22 198.45 408.23 192.84 397.38 189.97 C 398.17 191.05 398.86 192.37 400.25 192.80 C 409.50 196.73 419.32 199.30 428.31 203.81 C 417.74 200.99 407.93 195.90 397.40 192.97 C 398.24 194.00 398.92 195.32 400.26 195.81 C 409.25 199.64 418.80 202.13 427.54 206.54 C 417.24 203.74 407.63 198.90 397.39 195.92 C 398.23 196.99 398.91 198.35 400.30 198.83 C 408.82 202.46 417.81 204.95 426.18 208.95 C 416.30 206.47 407.12 201.87 397.41 198.88 C 399.09 202.56 403.48 202.96 406.78 204.41 C 412.92 206.90 419.40 208.62 425.24 211.81 C 416.06 209.22 407.35 205.23 398.35 202.12 C 397.96 202.53 397.20 203.37 396.82 203.79 C 406.06 207.32 415.63 210.16 424.51 214.55 C 418.13 212.90 412.13 210.13 405.92 207.98 C 400.10 206.04 394.53 202.61 388.17 203.06 C 399.52 208.46 411.83 211.57 423.20 216.96 C 410.58 213.38 398.61 207.82 386.19 203.64 C 381.84 202.51 377.30 203.01 372.86 203.05 C 373.06 203.48 373.46 204.35 373.66 204.78 C 371.24 204.06 368.81 203.35 366.37 202.70 C 362.55 201.51 358.83 199.95 355.42 197.85 C 368.15 197.62 380.88 197.61 393.61 197.61 C 393.53 166.45 393.19 135.30 393.21 104.14 Z" />
<path fill="#c5c4c5" opacity="1.00" d=" M 412.99 241.46 C 416.42 244.83 419.80 248.25 422.88 251.95 C 422.16 253.82 422.50 255.85 423.36 257.62 C 423.97 256.42 424.60 255.13 424.45 253.75 C 429.07 258.66 434.01 263.26 438.65 268.15 C 440.03 280.66 443.93 292.74 445.73 305.20 C 443.69 300.38 443.07 295.16 441.97 290.09 C 440.60 283.38 438.92 276.73 437.95 269.95 C 437.47 270.30 436.50 271.01 436.01 271.36 C 437.90 282.74 441.19 293.87 442.75 305.29 C 439.45 295.06 438.22 284.29 435.56 273.88 C 435.14 272.10 433.90 270.71 432.83 269.30 C 434.41 281.72 438.76 293.70 439.72 306.20 C 436.86 294.55 434.72 282.72 432.13 271.00 C 431.75 269.11 430.59 267.53 429.57 265.96 C 430.91 279.68 435.41 292.90 437.27 306.55 C 436.47 304.41 435.76 302.23 435.30 299.99 C 433.01 288.98 430.70 277.97 428.37 266.97 C 427.58 262.45 423.33 260.03 420.57 256.79 C 421.04 254.18 420.63 251.58 419.54 249.18 C 419.13 250.64 418.76 252.11 418.44 253.59 C 418.33 255.47 418.36 257.35 418.38 259.22 C 417.51 255.66 416.36 252.11 413.92 249.28 C 413.26 246.73 413.08 244.09 412.99 241.46 Z" />
</g>
<g id="#b3bba6ff">
<path fill="#b3bba6" opacity="1.00" d=" M 238.88 111.79 C 240.61 111.86 242.35 111.93 244.09 111.99 L 244.09 112.41 C 241.67 113.30 238.38 113.47 237.30 116.25 C 235.23 121.12 237.10 126.41 238.67 131.13 C 241.00 138.54 243.99 145.73 245.95 153.26 C 245.45 152.96 244.45 152.36 243.95 152.06 C 241.50 142.49 237.44 133.41 235.18 123.78 C 233.90 119.48 236.03 114.99 238.88 111.79 Z" />
</g>
<g id="#442a19ff">
<path fill="#442a19" opacity="1.00" d=" M 427.47 117.98 C 431.91 117.77 437.31 117.86 440.19 121.86 C 442.23 125.13 444.16 128.47 446.13 131.79 C 445.19 134.34 444.27 136.92 443.00 139.34 C 441.97 141.19 440.90 143.01 439.82 144.83 C 439.46 145.07 438.72 145.54 438.35 145.78 C 439.14 143.84 439.70 141.82 440.11 139.76 C 437.87 137.93 435.98 135.75 434.12 133.56 C 434.03 134.32 433.85 135.85 433.76 136.61 C 429.88 134.71 427.97 130.81 426.74 126.89 C 425.17 126.90 423.60 126.91 422.04 126.93 C 420.78 128.84 419.60 130.79 418.47 132.78 C 421.07 133.67 423.67 134.60 426.20 135.70 C 423.51 134.85 420.84 133.92 418.15 133.08 C 417.42 134.55 416.71 136.03 415.94 137.49 C 416.36 134.85 416.91 132.23 417.53 129.63 C 418.35 127.15 418.99 124.57 420.26 122.27 C 421.29 120.88 423.17 121.11 424.67 120.75 C 425.60 119.83 426.53 118.91 427.47 117.98 Z" />
<path fill="#442a19" opacity="1.00" d=" M 484.38 175.22 C 487.87 174.53 491.96 174.53 494.62 177.28 C 497.94 180.62 502.47 183.41 503.62 188.29 C 504.66 192.34 503.19 196.65 501.09 200.12 C 495.84 206.79 489.99 212.98 484.63 219.57 C 483.08 221.55 481.11 223.14 479.17 224.71 C 475.98 224.62 472.81 224.20 469.73 223.37 C 469.64 223.00 469.45 222.28 469.36 221.91 C 471.24 220.82 473.12 219.71 475.04 218.66 C 476.02 218.13 477.02 217.60 477.99 217.03 C 482.18 213.75 485.86 209.85 489.29 205.79 L 487.45 205.83 L 488.63 205.44 C 489.14 205.27 490.18 204.92 490.70 204.75 C 491.86 203.19 493.04 201.63 494.22 200.09 C 489.93 194.67 485.79 187.83 487.52 180.64 C 481.96 182.82 475.96 185.37 472.58 190.56 L 472.11 191.27 C 471.91 191.03 471.51 190.55 471.31 190.32 C 468.07 193.47 465.04 196.81 462.13 200.26 C 461.31 201.18 460.49 202.10 459.69 203.04 C 458.27 204.68 456.87 206.33 455.44 207.97 C 454.57 204.67 454.95 201.21 456.64 198.23 C 459.89 196.30 461.60 192.80 464.25 190.23 C 470.10 184.25 476.16 177.80 484.38 175.22 Z" />
</g>
<g id="#e4501eff">
<path fill="#e4501e" opacity="1.00" d=" M 471.01 121.78 C 471.72 120.44 473.68 117.85 475.05 119.93 C 484.26 130.01 494.26 139.32 503.43 149.43 C 510.68 157.61 518.94 164.83 526.13 173.04 C 525.33 174.25 524.26 175.24 523.26 176.27 C 517.91 170.42 512.27 164.85 506.69 159.23 C 500.23 152.73 494.28 145.75 487.76 139.31 C 482.09 133.56 476.19 127.98 471.01 121.78 Z" />
</g>
<g id="#aaaaaaff">
<path fill="#aaaaaa" opacity="1.00" d=" M 464.29 120.67 C 465.55 121.43 466.81 122.20 468.08 122.97 L 467.89 123.54 C 467.49 124.77 467.11 126.01 466.74 127.26 L 466.33 126.87 C 465.26 125.87 464.17 124.90 463.09 123.92 C 463.48 122.84 463.88 121.75 464.29 120.67 Z" />
<path fill="#aaaaaa" opacity="1.00" d=" M 403.90 232.36 C 404.24 232.72 404.92 233.43 405.26 233.79 C 405.98 236.43 406.05 239.20 405.52 241.89 L 405.00 240.14 C 404.21 237.62 404.02 234.97 403.90 232.36 Z" />
</g>
<g id="#c7c5c4ff">
<path fill="#c7c5c4" opacity="1.00" d=" M 463.09 123.92 C 464.17 124.90 465.26 125.87 466.33 126.87 C 465.36 129.99 464.26 133.07 463.01 136.10 C 461.84 135.14 460.67 134.19 459.49 133.25 C 460.66 130.13 461.93 127.05 463.09 123.92 Z" />
</g>
<g id="#eab086ff">
<path fill="#eab086" opacity="1.00" d=" M 422.04 126.93 C 423.60 126.91 425.17 126.90 426.74 126.89 C 427.97 130.81 429.88 134.71 433.76 136.61 C 433.85 135.85 434.03 134.32 434.12 133.56 C 435.98 135.75 437.87 137.93 440.11 139.76 C 439.70 141.82 439.14 143.84 438.35 145.78 C 438.72 145.54 439.46 145.07 439.82 144.83 C 440.90 143.01 441.97 141.19 443.00 139.34 C 443.28 140.00 443.86 141.32 444.15 141.98 C 439.61 148.99 430.94 151.74 426.33 158.75 C 424.44 158.98 422.55 159.20 420.66 159.33 L 420.22 159.30 C 419.10 157.65 417.32 156.19 417.30 154.05 C 416.90 148.78 416.42 143.48 414.70 138.45 C 413.72 135.35 413.50 130.55 417.53 129.63 C 416.91 132.23 416.36 134.85 415.94 137.49 C 416.71 136.03 417.42 134.55 418.15 133.08 C 420.84 133.92 423.51 134.85 426.20 135.70 C 423.67 134.60 421.07 133.67 418.47 132.78 C 419.60 130.79 420.78 128.84 422.04 126.93 M 427.01 137.34 C 425.54 140.36 430.34 137.40 427.01 137.34 M 428.85 138.07 C 428.90 138.78 429.01 140.21 429.06 140.92 C 429.65 140.27 430.24 139.62 430.84 138.98 C 432.38 138.90 433.92 138.80 435.47 138.67 C 433.34 137.90 431.06 138.01 428.85 138.07 M 417.35 139.20 C 417.01 140.65 419.43 141.59 420.51 140.83 C 420.83 139.41 418.40 138.43 417.35 139.20 M 422.46 141.27 C 422.36 142.72 424.90 142.49 425.58 141.65 C 425.67 140.21 423.13 140.44 422.46 141.27 M 428.87 141.80 C 428.37 145.40 432.67 146.07 435.32 145.93 C 433.72 145.10 432.08 144.34 430.44 143.60 C 430.05 143.15 429.26 142.25 428.87 141.80 M 419.61 145.98 C 419.76 148.21 419.55 150.94 421.71 152.33 C 424.26 154.99 428.81 153.15 430.02 150.05 C 426.75 148.22 423.12 147.21 419.61 145.98 Z" />
</g>
<g id="#b07720ff">
<path fill="#b07720" opacity="1.00" d=" M 459.49 133.25 C 460.67 134.19 461.84 135.14 463.01 136.10 C 462.53 137.78 462.05 139.47 461.59 141.16 L 461.14 140.71 C 460.06 139.67 458.98 138.63 457.91 137.60 C 458.43 136.15 458.94 134.70 459.49 133.25 Z" />
</g>
<g id="#373737ff">
<path fill="#373737" opacity="1.00" d=" M 373.25 134.65 C 378.93 135.84 385.19 137.83 387.96 143.43 C 388.12 144.22 388.28 145.02 388.45 145.81 C 382.61 145.92 376.78 145.89 370.95 145.94 C 372.02 142.25 372.83 138.47 373.25 134.65 Z" />
<path fill="#373737" opacity="1.00" d=" M 398.03 159.35 C 402.34 154.88 409.09 154.46 414.77 156.04 C 414.08 160.05 413.50 164.07 412.88 168.09 C 408.01 166.14 403.02 164.51 398.20 162.44 C 397.69 162.13 396.68 161.52 396.18 161.21 C 396.64 160.75 397.57 159.81 398.03 159.35 Z" />
<path fill="#373737" opacity="1.00" d=" M 421.06 171.07 C 423.33 167.66 425.28 164.03 427.76 160.75 C 433.26 163.66 438.01 168.79 438.25 175.31 C 438.14 175.79 437.92 176.76 437.81 177.25 C 436.34 176.77 434.88 176.27 433.42 175.77 C 429.32 174.14 425.16 172.68 421.06 171.07 Z" />
</g>
<g id="#ee9208ff">
<path fill="#ee9208" opacity="1.00" d=" M 463.01 136.10 C 468.34 142.05 474.23 147.47 479.73 153.26 C 480.65 154.28 481.62 155.34 481.99 156.70 C 481.01 157.73 479.29 159.90 477.96 158.18 C 472.35 152.67 467.26 146.62 461.59 141.16 C 462.05 139.47 462.53 137.78 463.01 136.10 Z" />
<path fill="#ee9208" opacity="1.00" d=" M 436.01 209.36 C 437.14 208.50 438.31 207.69 439.48 206.88 C 450.07 217.27 460.02 228.29 470.30 238.98 C 468.88 239.44 467.33 241.65 465.85 240.31 C 455.36 230.58 445.99 219.70 435.94 209.52 L 436.01 209.36 Z" />
</g>
<g id="#a9856dff">
<path fill="#a9856d" opacity="1.00" d=" M 427.01 137.34 C 430.34 137.40 425.54 140.36 427.01 137.34 Z" />
</g>
<g id="#bc9172ff">
<path fill="#bc9172" opacity="1.00" d=" M 428.85 138.07 C 431.06 138.01 433.34 137.90 435.47 138.67 C 433.92 138.80 432.38 138.90 430.84 138.98 C 430.24 139.62 429.65 140.27 429.06 140.92 C 429.01 140.21 428.90 138.78 428.85 138.07 Z" />
</g>
<g id="#c4c3c3ff">
<path fill="#c4c3c3" opacity="1.00" d=" M 457.91 137.60 C 458.98 138.63 460.06 139.67 461.14 140.71 C 460.83 141.81 460.52 142.91 460.21 144.01 C 462.71 146.51 465.12 149.11 467.20 151.99 C 464.47 149.55 462.02 146.66 458.55 145.24 C 460.35 148.78 463.31 151.45 466.23 154.05 L 465.79 154.76 C 463.45 152.39 461.03 150.10 458.53 147.92 C 456.92 153.28 454.86 158.49 452.95 163.75 C 452.41 165.19 451.85 166.61 451.28 168.04 C 454.44 171.45 457.90 174.57 460.89 178.13 C 456.88 175.62 454.08 171.72 450.49 168.71 C 450.56 169.36 450.69 170.66 450.75 171.31 C 453.08 174.37 456.27 176.70 458.30 180.02 C 454.96 177.43 452.62 173.48 448.44 172.12 C 450.51 175.82 453.94 178.46 456.25 181.99 C 453.41 179.51 450.85 176.67 447.66 174.62 C 448.90 178.37 452.10 180.86 454.34 183.98 C 451.80 181.77 449.36 179.43 446.54 177.57 C 447.83 180.76 450.16 183.32 452.30 185.94 C 450.12 184.09 447.95 182.21 445.63 180.52 C 446.67 183.26 448.37 185.65 450.24 187.87 C 448.40 186.37 446.51 184.93 444.55 183.60 C 445.40 185.36 446.35 187.07 447.39 188.73 C 447.50 189.00 447.74 189.52 447.85 189.78 C 446.46 188.68 445.08 187.57 443.69 186.48 C 444.41 188.25 445.16 190.02 445.90 191.79 C 444.88 191.08 443.86 190.36 442.85 189.66 C 443.17 190.96 443.52 192.27 443.86 193.58 C 443.43 193.47 442.56 193.27 442.13 193.17 C 439.70 198.41 437.43 203.74 436.01 209.36 L 435.94 209.52 C 435.50 210.54 435.08 211.58 434.68 212.62 C 436.66 214.60 438.54 216.68 440.26 218.91 C 438.02 217.02 435.84 215.08 433.48 213.36 C 434.32 216.30 436.24 218.70 438.26 220.93 C 436.37 219.36 434.43 217.86 432.38 216.51 C 433.21 218.89 434.56 221.03 436.21 222.92 C 434.78 221.86 433.33 220.82 431.88 219.79 C 431.02 224.68 427.63 228.82 427.26 233.76 C 434.09 241.94 442.75 248.53 449.29 257.01 C 441.80 250.42 435.06 243.05 428.08 235.94 C 425.33 232.98 421.24 232.13 417.60 230.82 C 418.04 231.89 418.50 232.95 418.96 234.02 C 415.60 229.33 410.13 227.46 404.83 225.98 C 405.55 227.28 406.28 228.59 407.01 229.90 C 404.50 227.54 401.89 225.28 399.12 223.24 C 397.11 221.29 395.35 219.05 394.30 216.43 C 404.44 219.82 414.15 224.51 424.49 227.30 C 435.44 197.34 446.73 167.49 457.91 137.60 Z" />
<path fill="#c4c3c3" opacity="1.00" d=" M 413.48 232.22 C 414.71 231.52 416.58 233.33 415.83 234.57 C 414.60 235.25 412.76 233.43 413.48 232.22 Z" />
<path fill="#c4c3c3" opacity="1.00" d=" M 411.31 233.52 C 412.73 233.09 414.39 235.22 413.82 236.54 C 412.34 237.15 410.58 234.86 411.31 233.52 Z" />
</g>
<g id="#c29270ff">
<path fill="#c29270" opacity="1.00" d=" M 417.35 139.20 C 418.40 138.43 420.83 139.41 420.51 140.83 C 419.43 141.59 417.01 140.65 417.35 139.20 Z" />
</g>
<g id="#ac8668ff">
<path fill="#ac8668" opacity="1.00" d=" M 422.46 141.27 C 423.13 140.44 425.67 140.21 425.58 141.65 C 424.90 142.49 422.36 142.72 422.46 141.27 Z" />
</g>
<g id="#c29576ff">
<path fill="#c29576" opacity="1.00" d=" M 428.87 141.80 C 429.26 142.25 430.05 143.15 430.44 143.60 C 432.08 144.34 433.72 145.10 435.32 145.93 C 432.67 146.07 428.37 145.40 428.87 141.80 Z" />
</g>
<g id="#fffefbff">
<path fill="#fffefb" opacity="1.00" d=" M 419.61 145.98 C 423.12 147.21 426.75 148.22 430.02 150.05 C 428.81 153.15 424.26 154.99 421.71 152.33 C 419.55 150.94 419.76 148.21 419.61 145.98 Z" />
</g>
<g id="#f2f2f2ff">
<path fill="#f2f2f2" opacity="1.00" d=" M 458.53 147.92 C 461.03 150.10 463.45 152.39 465.79 154.76 L 466.23 154.05 C 467.57 155.37 468.77 156.81 469.95 158.28 L 470.13 160.46 C 468.79 159.22 467.38 158.06 465.96 156.93 C 465.97 157.32 466.01 158.12 466.02 158.51 L 466.08 160.24 C 465.57 159.90 464.53 159.23 464.01 158.89 C 464.02 159.30 464.03 160.11 464.04 160.51 L 464.06 162.19 C 462.77 161.03 461.43 159.94 460.10 158.85 C 460.99 160.36 461.89 161.87 462.77 163.39 L 463.17 165.44 C 461.81 164.20 460.38 163.05 458.95 161.92 C 458.96 162.32 459.00 163.12 459.02 163.52 L 459.10 165.17 C 458.58 164.84 457.54 164.18 457.02 163.85 C 457.02 164.26 457.00 165.10 457.00 165.52 L 456.97 167.23 C 455.66 166.03 454.30 164.89 452.95 163.75 C 454.86 158.49 456.92 153.28 458.53 147.92 Z" />
</g>
<g id="#e96322ff">
<path fill="#e96322" opacity="1.00" d=" M 355.85 154.74 C 358.26 154.69 360.67 154.61 363.08 154.43 C 371.46 153.90 379.87 154.28 388.27 154.13 C 388.29 154.94 388.32 156.55 388.34 157.35 C 381.26 158.19 374.13 157.61 367.03 157.84 C 362.95 157.96 358.87 157.74 354.83 157.26 C 355.08 156.63 355.59 155.37 355.85 154.74 Z" />
</g>
<g id="#dfdfdfff">
<path fill="#dfdfdf" opacity="1.00" d=" M 470.42 155.43 C 473.24 157.20 475.62 159.58 477.41 162.39 C 473.97 161.51 471.90 158.42 470.42 155.43 Z" />
<path fill="#dfdfdf" opacity="1.00" d=" M 466.02 158.51 C 468.65 161.02 471.41 163.45 473.38 166.55 C 470.36 165.20 468.09 162.78 466.08 160.24 L 466.02 158.51 Z" />
<path fill="#dfdfdf" opacity="1.00" d=" M 464.04 160.51 C 466.66 163.01 469.37 165.47 471.41 168.50 C 468.43 167.08 466.06 164.76 464.06 162.19 L 464.04 160.51 Z" />
<path fill="#dfdfdf" opacity="1.00" d=" M 459.02 163.52 C 461.87 166.41 465.00 169.06 467.31 172.44 C 463.89 170.87 461.45 167.99 459.10 165.17 L 459.02 163.52 Z" />
</g>
<g id="#c36f44ff">
<path fill="#c36f44" opacity="1.00" d=" M 354.83 157.26 C 358.87 157.74 362.95 157.96 367.03 157.84 C 374.13 157.61 381.26 158.19 388.34 157.35 C 388.35 157.80 388.37 158.69 388.38 159.13 C 376.94 159.18 365.50 159.11 354.06 159.18 C 354.25 158.70 354.63 157.74 354.83 157.26 Z" />
</g>
<g id="#111111ff">
<path fill="#111111" opacity="1.00" d=" M 420.22 159.30 L 420.66 159.33 C 421.06 159.59 421.84 160.10 422.23 160.36 C 421.11 163.66 419.91 166.93 418.96 170.28 C 417.58 169.79 416.19 169.29 414.82 168.80 C 416.31 166.06 417.84 163.27 418.30 160.13 C 418.78 159.92 419.74 159.50 420.22 159.30 Z" />
</g>
<g id="#ddddddff">
<path fill="#dddddd" opacity="1.00" d=" M 469.95 158.28 C 471.81 160.31 473.71 162.32 475.39 164.51 C 473.42 163.47 471.61 162.13 470.13 160.46 L 469.95 158.28 Z" />
<path fill="#dddddd" opacity="1.00" d=" M 379.53 203.86 C 381.88 204.06 384.22 204.54 386.43 205.43 C 397.04 209.53 407.70 213.49 418.38 217.42 C 419.95 217.94 421.37 218.82 422.45 220.11 C 411.79 216.95 401.59 212.41 391.10 208.75 C 387.23 207.15 382.99 206.32 379.53 203.86 Z" />
<path fill="#dddddd" opacity="1.00" d=" M 441.34 224.49 C 443.15 225.69 444.82 227.09 446.29 228.69 C 451.84 234.51 457.93 239.86 462.94 246.17 C 459.22 244.81 457.02 241.29 454.17 238.75 C 449.84 234.06 444.68 230.00 441.34 224.49 Z" />
<path fill="#dddddd" opacity="1.00" d=" M 432.45 227.53 C 433.99 228.61 435.49 229.76 436.81 231.11 C 442.37 236.91 448.23 242.42 453.76 248.26 C 454.86 249.41 455.61 250.83 456.33 252.24 C 452.09 249.37 448.93 245.26 445.18 241.83 C 440.88 237.13 435.65 233.11 432.45 227.53 Z" />
<path fill="#dddddd" opacity="1.00" d=" M 436.32 227.47 C 440.87 230.57 444.28 234.99 448.28 238.73 C 451.71 242.51 455.90 245.72 458.46 250.22 C 454.77 248.17 452.30 244.65 449.23 241.86 C 444.91 237.09 439.52 233.13 436.32 227.47 Z" />
<path fill="#dddddd" opacity="1.00" d=" M 430.51 229.51 C 437.14 234.81 442.71 241.32 448.78 247.24 C 450.86 249.39 453.12 251.47 454.32 254.28 C 447.91 249.23 442.55 242.95 436.72 237.25 C 434.40 234.88 431.82 232.64 430.51 229.51 Z" />
<path fill="#dddddd" opacity="1.00" d=" M 484.98 230.40 C 488.28 234.17 487.82 239.83 488.84 244.52 C 485.79 240.57 486.07 235.10 484.98 230.40 Z" />
<path fill="#dddddd" opacity="1.00" d=" M 428.59 231.68 C 434.76 236.34 439.79 242.33 445.26 247.77 C 447.71 250.51 450.93 252.75 452.29 256.31 C 450.81 255.27 449.40 254.14 448.15 252.85 C 442.62 247.05 436.78 241.57 431.29 235.74 C 430.15 234.56 429.34 233.12 428.59 231.68 Z" />
<path fill="#dddddd" opacity="1.00" d=" M 421.34 236.53 C 426.71 240.46 431.01 245.62 435.79 250.23 C 439.06 253.99 443.35 256.99 445.56 261.58 C 441.96 259.19 439.31 255.73 436.21 252.78 C 431.22 247.41 425.13 242.88 421.34 236.53 Z" />
<path fill="#dddddd" opacity="1.00" d=" M 418.41 237.50 C 424.82 242.38 429.98 248.71 435.80 254.26 C 437.98 256.43 440.25 258.59 441.60 261.42 C 436.80 258.35 433.40 253.65 429.21 249.86 C 425.54 245.81 421.05 242.37 418.41 237.50 Z" />
<path fill="#dddddd" opacity="1.00" d=" M 416.38 239.49 C 420.21 241.98 423.04 245.61 426.33 248.72 C 430.80 253.63 436.36 257.71 439.66 263.56 C 435.82 261.11 433.03 257.46 429.76 254.36 C 425.27 249.45 419.72 245.33 416.38 239.49 Z" />
<path fill="#dddddd" opacity="1.00" d=" M 418.99 264.46 C 420.01 265.43 420.90 266.57 421.03 268.03 C 423.45 279.69 425.86 291.36 428.45 302.99 C 428.84 304.82 428.94 306.68 429.04 308.55 C 426.76 305.14 426.70 300.89 425.68 297.04 C 423.54 286.16 420.86 275.39 418.99 264.46 Z" />
<path fill="#dddddd" opacity="1.00" d=" M 411.02 266.36 C 413.39 269.76 413.31 274.08 414.40 277.95 C 416.55 288.81 419.17 299.60 421.03 310.51 C 419.09 309.03 418.97 306.52 418.49 304.35 C 416.95 296.12 414.99 287.99 413.37 279.78 C 412.52 275.32 411.00 270.95 411.02 266.36 Z" />
<path fill="#dddddd" opacity="1.00" d=" M 405.09 267.59 C 406.19 268.04 406.81 268.83 406.95 269.97 C 409.31 281.91 411.93 293.79 414.52 305.68 C 414.90 307.59 415.04 309.54 415.13 311.49 C 413.60 309.64 413.29 307.21 412.83 304.94 C 410.36 292.47 407.37 280.09 405.09 267.59 Z" />
</g>
<g id="#dededeff">
<path fill="#dedede" opacity="1.00" d=" M 462.77 163.39 C 465.16 165.54 467.46 167.80 469.29 170.47 C 466.93 169.21 464.83 167.53 463.17 165.44 L 462.77 163.39 Z" />
<path fill="#dedede" opacity="1.00" d=" M 457.00 165.52 C 459.86 168.37 462.98 171.03 465.21 174.44 C 461.86 172.80 459.36 170.01 456.97 167.23 L 457.00 165.52 Z" />
<path fill="#dedede" opacity="1.00" d=" M 453.42 166.73 C 457.32 169.11 460.60 172.45 463.11 176.26 C 458.71 174.72 455.98 170.40 453.42 166.73 Z" />
<path fill="#dedede" opacity="1.00" d=" M 496.24 230.03 C 495.75 226.89 494.14 223.53 495.54 220.41 C 497.24 227.61 499.29 234.85 499.78 242.25 C 497.32 238.65 497.32 234.12 496.24 230.03 Z" />
<path fill="#dedede" opacity="1.00" d=" M 490.19 243.02 C 489.73 237.90 486.89 232.74 488.42 227.63 C 489.82 232.65 490.69 237.79 491.69 242.90 C 491.32 242.93 490.57 242.99 490.19 243.02 Z" />
<path fill="#dedede" opacity="1.00" d=" M 475.25 239.53 C 477.85 240.74 477.27 244.15 477.79 246.49 C 475.33 245.10 475.76 241.91 475.25 239.53 Z" />
</g>
<g id="#e2e1e0ff">
<path fill="#e2e1e0" opacity="1.00" d=" M 348.20 171.96 C 349.03 170.31 349.88 168.67 350.70 167.01 C 362.14 167.72 373.60 167.04 385.05 167.18 C 386.59 167.03 387.86 167.88 389.04 168.75 C 376.16 169.75 363.21 168.47 350.33 169.48 C 358.20 170.44 366.13 169.60 374.03 169.89 C 379.08 170.16 384.41 168.93 389.20 171.04 C 386.49 171.54 383.73 171.76 380.97 171.75 C 370.05 171.66 359.12 171.92 348.20 171.96 Z" />
</g>
<g id="#175c8fff">
<path fill="#175c8f" opacity="1.00" d=" M 393.67 170.08 C 395.04 170.59 396.42 171.09 397.80 171.60 L 398.24 171.76 C 398.20 173.28 398.18 174.81 398.15 176.33 C 396.66 175.87 395.18 175.41 393.70 174.94 C 393.68 173.32 393.67 171.70 393.67 170.08 Z" />
</g>
<g id="#1176baff">
<path fill="#1176ba" opacity="1.00" d=" M 398.24 171.76 C 410.41 176.27 422.49 181.01 434.74 185.29 C 434.17 186.71 433.61 188.12 433.05 189.54 C 421.34 185.45 409.86 180.73 398.15 176.66 L 398.15 176.33 C 398.18 174.81 398.20 173.28 398.24 171.76 Z" />
</g>
<g id="#d9d9d9ff">
<path fill="#d9d9d9" opacity="1.00" d=" M 344.07 181.94 C 358.77 181.84 373.47 181.64 388.17 181.84 L 388.08 182.95 C 373.42 183.00 358.75 183.04 344.08 182.97 L 344.07 181.94 Z" />
<path fill="#d9d9d9" opacity="1.00" d=" M 343.46 185.60 C 346.10 184.25 349.14 184.72 352.00 184.65 C 362.67 184.65 373.34 184.62 384.01 184.54 C 385.57 184.49 387.17 184.73 388.55 185.54 C 379.06 186.32 369.51 185.74 359.99 185.94 C 354.48 185.84 348.94 186.31 343.46 185.60 Z" />
<path fill="#d9d9d9" opacity="1.00" d=" M 343.50 193.17 C 352.64 192.65 361.80 193.13 370.95 193.02 C 377.03 193.15 383.16 192.55 389.21 193.44 C 387.15 193.80 385.07 194.04 382.99 194.03 C 371.99 194.00 360.98 193.93 349.97 194.08 C 347.79 194.05 345.47 194.30 343.50 193.17 Z" />
<path fill="#d9d9d9" opacity="1.00" d=" M 471.13 244.46 C 472.49 244.70 472.70 245.40 471.76 246.56 C 470.39 246.30 470.18 245.61 471.13 244.46 Z" />
</g>
<g id="#e0e0e0ff">
<path fill="#e0e0e0" opacity="1.00" d=" M 343.66 187.18 C 353.09 186.65 362.53 187.02 371.97 186.90 C 377.75 187.02 383.58 186.34 389.31 187.42 C 386.66 189.48 383.15 188.68 380.05 188.83 C 368.20 188.62 356.32 189.33 344.49 188.75 C 344.28 188.35 343.87 187.57 343.66 187.18 Z" />
</g>
<g id="#010000ff">
<path fill="#010000" opacity="1.00" d=" M 471.31 190.32 C 471.51 190.55 471.91 191.03 472.11 191.27 C 471.04 194.77 471.24 198.95 468.67 201.79 C 466.41 203.45 464.14 201.21 462.13 200.26 C 465.04 196.81 468.07 193.47 471.31 190.32 Z" />
<path fill="#010000" opacity="1.00" d=" M 474.89 211.10 C 477.18 206.38 483.29 207.55 487.45 205.83 L 489.29 205.79 C 485.86 209.85 482.18 213.75 477.99 217.03 C 476.85 215.11 475.61 213.22 474.89 211.10 Z" />
</g>
<g id="#d9a47cff">
<path fill="#d9a47c" opacity="1.00" d=" M 276.00 195.00 C 283.91 203.40 295.32 208.85 307.01 207.80 C 315.16 207.33 322.29 203.08 329.05 198.90 C 328.66 201.88 328.22 204.85 327.74 207.81 C 318.18 209.11 308.51 209.40 298.98 210.95 C 293.16 211.86 287.76 214.36 282.68 217.26 C 281.67 216.34 280.69 215.38 279.71 214.44 C 281.36 207.64 278.29 201.21 276.00 195.00 Z" />
</g>
<g id="#1b737fff">
<path fill="#1b737f" opacity="1.00" d=" M 330.85 199.27 C 331.02 198.92 331.37 198.22 331.54 197.87 C 336.29 197.91 341.06 197.75 345.80 198.13 C 349.75 199.73 353.67 201.40 357.67 202.85 C 353.38 202.93 349.10 203.27 344.81 203.18 C 344.42 203.08 343.63 202.89 343.23 202.79 C 339.23 201.23 335.25 199.31 330.85 199.27 Z" />
</g>
<g id="#c2c9c9ff">
<path fill="#c2c9c9" opacity="1.00" d=" M 345.80 198.13 C 349.01 198.08 352.21 197.89 355.42 197.85 C 358.83 199.95 362.55 201.51 366.37 202.70 C 364.06 202.88 361.76 203.16 359.46 203.47 C 358.86 203.25 358.26 203.05 357.67 202.85 C 353.67 201.40 349.75 199.73 345.80 198.13 Z" />
</g>
<g id="#ce1139ff">
<path fill="#ce1139" opacity="1.00" d=" M 449.23 198.27 C 451.69 198.00 454.17 198.12 456.64 198.23 C 454.95 201.21 454.57 204.67 455.44 207.97 C 456.87 206.33 458.27 204.68 459.69 203.04 C 460.26 206.90 461.28 210.97 464.20 213.77 C 466.97 216.83 471.17 217.80 475.04 218.66 C 473.12 219.71 471.24 220.82 469.36 221.91 C 469.45 222.28 469.64 223.00 469.73 223.37 C 472.81 224.20 475.98 224.62 479.17 224.71 C 479.02 226.11 478.84 227.51 478.64 228.90 C 477.66 230.02 476.54 230.99 475.46 232.01 C 466.08 221.36 455.78 211.58 446.04 201.27 C 447.09 200.26 448.11 199.21 449.23 198.27 Z" />
</g>
<g id="#2491a5ff">
<path fill="#2491a5" opacity="1.00" d=" M 330.85 199.27 C 335.25 199.31 339.23 201.23 343.23 202.79 C 338.67 202.84 334.12 203.09 329.56 203.06 C 329.94 201.78 330.37 200.52 330.85 199.27 Z" />
</g>
<g id="#2492a3ff">
<path fill="#2492a3" opacity="1.00" d=" M 344.81 203.18 C 349.10 203.27 353.38 202.93 357.67 202.85 C 358.26 203.05 358.86 203.25 359.46 203.47 C 364.93 205.42 370.35 207.49 375.78 209.55 C 377.72 212.17 379.78 214.74 382.25 216.91 C 369.54 212.98 357.24 207.89 344.81 203.18 Z" />
</g>
<g id="#1d8897ff">
<path fill="#1d8897" opacity="1.00" d=" M 515.77 204.29 C 517.13 203.95 518.51 203.62 519.88 203.28 C 525.19 227.96 530.58 252.63 535.54 277.38 C 534.12 277.66 532.70 277.93 531.29 278.20 C 526.34 253.52 520.78 228.96 515.77 204.29 Z" />
</g>
<g id="#deddddff">
<path fill="#dedddd" opacity="1.00" d=" M 379.41 206.14 C 391.77 210.31 403.86 215.26 416.16 219.65 C 418.08 220.41 420.44 220.85 421.42 222.91 C 408.99 218.95 396.95 213.79 384.64 209.47 C 382.72 208.70 380.26 208.30 379.41 206.14 Z" />
</g>
<g id="#1c727eff">
<path fill="#1c727e" opacity="1.00" d=" M 375.78 209.55 C 379.52 210.92 383.29 212.22 386.88 213.97 C 388.47 215.74 390.22 217.44 391.39 219.53 C 392.25 222.14 392.45 224.92 393.05 227.60 C 391.32 225.93 389.51 224.36 387.86 222.61 C 386.25 220.47 384.39 218.52 382.25 216.91 C 379.78 214.74 377.72 212.17 375.78 209.55 Z" />
</g>
<g id="#c4c6c5ff">
<path fill="#c4c6c5" opacity="1.00" d=" M 386.88 213.97 C 389.33 214.84 391.84 215.56 394.30 216.43 C 395.35 219.05 397.11 221.29 399.12 223.24 C 397.59 222.84 396.05 222.50 394.52 222.17 C 395.15 222.93 395.80 223.70 396.46 224.45 C 396.43 227.00 396.58 229.55 397.17 232.04 C 396.00 230.89 394.75 229.81 393.51 228.75 L 393.76 230.21 C 393.52 229.34 393.29 228.47 393.05 227.60 C 392.45 224.92 392.25 222.14 391.39 219.53 C 390.22 217.44 388.47 215.74 386.88 213.97 Z" />
</g>
<g id="#8cbd40ff">
<path fill="#8cbd40" opacity="1.00" d=" M 498.08 218.27 C 499.34 217.11 500.60 215.96 501.88 214.82 C 503.94 222.88 505.42 231.07 507.24 239.18 C 506.08 240.18 504.45 240.32 503.06 240.87 C 501.15 233.39 499.86 225.78 498.08 218.27 Z" />
<path fill="#8cbd40" opacity="1.00" d=" M 442.07 272.24 C 443.35 271.09 444.63 269.94 445.92 268.81 C 448.56 280.08 451.14 291.41 453.02 302.84 C 451.67 303.22 450.33 303.60 448.99 303.99 C 446.52 293.44 444.63 282.76 442.07 272.24 Z" />
</g>
<g id="#0d3c4cff">
<path fill="#0d3c4c" opacity="1.00" d=" M 243.09 232.06 C 252.98 227.72 263.84 226.42 273.97 222.79 C 273.73 226.64 275.59 230.14 275.95 233.90 C 276.84 242.70 279.71 251.12 281.34 259.78 C 284.10 273.90 286.73 288.12 291.60 301.70 C 294.84 309.90 298.36 318.29 304.42 324.85 C 289.54 324.81 274.63 325.34 259.77 324.60 C 240.72 321.72 223.15 310.12 213.47 293.41 C 208.81 285.18 205.66 275.07 208.71 265.75 C 215.00 250.48 228.02 238.50 243.09 232.06 Z" />
<path fill="#0d3c4c" opacity="1.00" d=" M 335.18 222.77 C 341.66 225.53 348.67 226.57 355.40 228.54 C 370.64 232.65 384.76 241.61 393.91 254.62 C 396.45 259.04 399.48 263.33 400.82 268.32 C 401.75 273.38 400.90 278.62 399.51 283.53 C 392.36 305.37 371.57 321.03 349.20 324.53 C 343.49 325.24 337.73 324.87 331.99 324.93 C 322.89 324.88 313.80 325.04 304.70 324.86 C 310.59 316.80 315.23 307.80 318.02 298.20 L 318.52 296.80 C 324.18 280.42 325.92 263.05 330.36 246.34 C 332.03 240.38 332.24 234.10 334.28 228.23 C 334.87 226.47 334.98 224.60 335.18 222.77 Z" />
<path fill="#0d3c4c" opacity="1.00" d=" M 453.34 261.39 C 454.50 260.42 455.67 259.45 456.85 258.48 C 461.59 261.11 465.47 265.30 467.11 270.53 C 463.92 272.13 460.55 273.31 457.35 274.87 L 456.26 275.38 C 455.36 270.70 454.26 266.07 453.34 261.39 Z" />
<path fill="#0d3c4c" opacity="1.00" d=" M 457.77 283.88 C 461.89 283.90 466.02 283.91 470.14 283.97 C 470.09 287.20 469.64 290.42 468.91 293.57 C 467.41 295.89 465.71 298.09 463.61 299.91 C 463.13 300.05 462.18 300.32 461.70 300.46 C 460.06 295.03 459.74 289.23 457.77 283.88 Z" />
</g>
<g id="#2491a3ff">
<path fill="#2491a3" opacity="1.00" d=" M 387.86 222.61 C 389.51 224.36 391.32 225.93 393.05 227.60 C 393.29 228.47 393.52 229.34 393.76 230.21 C 399.81 259.14 405.89 288.07 412.20 316.94 C 457.12 307.19 502.11 297.79 547.07 288.23 C 547.38 289.51 547.68 290.80 548.00 292.10 C 501.48 302.25 454.87 311.99 408.28 321.83 C 406.24 310.73 403.67 299.74 401.42 288.68 C 401.04 286.87 400.34 285.16 399.51 283.53 C 400.90 278.62 401.75 273.38 400.82 268.32 C 399.48 263.33 396.45 259.04 393.91 254.62 C 392.31 243.87 389.00 233.43 387.86 222.61 Z" />
</g>
<g id="#dddddcff">
<path fill="#dddddc" opacity="1.00" d=" M 443.38 222.45 C 447.19 224.92 449.96 228.59 453.28 231.62 C 457.25 235.75 461.58 239.57 465.05 244.15 C 463.61 243.62 462.21 242.94 461.18 241.78 C 456.22 236.73 451.20 231.75 446.29 226.65 C 445.10 225.42 444.21 223.94 443.38 222.45 Z" />
</g>
<g id="#dcdcdcff">
<path fill="#dcdcdc" opacity="1.00" d=" M 492.19 223.52 C 494.23 224.41 494.06 226.81 494.54 228.64 C 495.25 233.28 496.80 237.78 497.01 242.50 C 496.01 241.16 495.25 239.65 495.01 237.98 C 494.10 233.15 492.99 228.36 492.19 223.52 Z" />
<path fill="#dcdcdc" opacity="1.00" d=" M 490.01 225.49 C 491.88 227.67 492.02 230.62 492.66 233.30 C 493.42 236.66 494.17 240.05 494.18 243.52 C 492.91 241.92 492.56 239.88 492.18 237.94 C 491.43 233.79 490.20 229.72 490.01 225.49 Z" />
<path fill="#dcdcdc" opacity="1.00" d=" M 439.38 226.60 C 443.91 229.69 447.33 234.05 451.29 237.79 C 454.41 241.18 458.22 244.07 460.40 248.23 C 456.35 245.48 453.29 241.59 449.73 238.27 C 446.20 234.46 441.99 231.17 439.38 226.60 Z" />
<path fill="#dcdcdc" opacity="1.00" d=" M 482.85 232.37 C 485.22 235.93 485.32 240.40 485.93 244.51 C 483.22 241.10 483.15 236.51 482.85 232.37 Z" />
<path fill="#dcdcdc" opacity="1.00" d=" M 480.20 234.72 C 483.01 237.49 482.62 241.89 483.11 245.51 C 480.77 242.44 480.79 238.37 480.20 234.72 Z" />
<path fill="#dcdcdc" opacity="1.00" d=" M 473.28 242.52 C 474.85 242.35 475.77 246.00 474.27 246.56 C 473.02 245.80 472.51 243.77 473.28 242.52 Z" />
<path fill="#dcdcdc" opacity="1.00" d=" M 422.03 263.58 C 423.06 265.24 423.84 267.06 424.15 269.01 C 425.96 278.02 427.99 286.98 429.79 296.00 C 430.58 300.06 431.92 304.06 431.93 308.24 C 429.26 304.35 429.42 299.40 428.22 294.99 C 426.26 284.50 423.18 274.19 422.03 263.58 Z" />
<path fill="#dcdcdc" opacity="1.00" d=" M 425.24 267.78 C 424.95 266.32 424.68 264.75 425.64 263.46 C 429.01 278.05 432.18 292.72 434.94 307.45 C 433.81 306.62 433.06 305.44 432.93 304.03 C 430.49 291.92 427.88 279.84 425.24 267.78 Z" />
<path fill="#dcdcdc" opacity="1.00" d=" M 413.82 265.45 C 415.03 266.76 415.30 268.53 415.66 270.20 C 418.30 283.34 421.42 296.39 423.82 309.57 C 422.82 309.00 422.23 308.16 422.03 307.07 C 420.05 297.69 418.11 288.30 416.08 278.94 C 415.14 274.48 413.90 270.04 413.82 265.45 Z" />
<path fill="#dcdcdc" opacity="1.00" d=" M 416.29 265.35 C 417.95 266.19 418.06 268.15 418.47 269.76 C 421.04 282.83 423.99 295.81 426.71 308.85 C 426.33 308.89 425.59 308.97 425.21 309.01 C 422.50 294.40 418.83 279.98 416.29 265.35 Z" />
<path fill="#dcdcdc" opacity="1.00" d=" M 407.99 266.51 C 409.95 268.61 410.06 271.56 410.66 274.22 C 412.85 284.52 414.98 294.84 417.26 305.13 C 417.74 307.15 417.79 309.24 417.81 311.31 C 415.36 306.19 415.16 300.39 413.70 294.97 C 411.89 285.47 409.20 276.11 407.99 266.51 Z" />
</g>
<g id="#c6c4c4ff">
<path fill="#c6c4c4" opacity="1.00" d=" M 397.17 232.04 C 396.58 229.55 396.43 227.00 396.46 224.45 C 398.91 227.11 401.44 229.70 403.90 232.36 C 404.02 234.97 404.21 237.62 405.00 240.14 C 404.47 239.80 403.40 239.14 402.86 238.80 C 404.35 246.41 406.34 253.92 407.40 261.60 C 404.59 254.38 404.08 246.54 402.09 239.09 C 401.69 237.52 400.50 236.33 399.62 235.04 C 400.35 244.28 403.63 253.09 404.63 262.30 C 401.10 252.51 400.69 241.85 397.17 232.04 Z" />
</g>
<g id="#bc3e36ff">
<path fill="#bc3e36" opacity="1.00" d=" M 298.47 231.87 C 299.87 230.66 301.43 229.63 303.07 228.76 C 303.74 228.77 305.07 228.80 305.74 228.81 C 306.18 229.01 307.07 229.42 307.51 229.63 C 304.46 230.24 301.47 231.07 298.47 231.87 Z" />
</g>
<g id="#e7302cff">
<path fill="#e7302c" opacity="1.00" d=" M 298.47 231.87 C 301.47 231.07 304.46 230.24 307.51 229.63 C 310.86 231.51 313.16 234.73 315.52 237.67 C 314.07 239.84 312.64 242.03 311.25 244.25 C 313.71 262.20 315.31 280.28 318.02 298.20 C 315.23 307.80 310.59 316.80 304.70 324.86 L 304.42 324.85 C 298.36 318.29 294.84 309.90 291.60 301.70 C 294.35 282.57 296.23 263.33 298.73 244.17 C 297.19 241.70 295.59 239.27 293.98 236.86 C 295.44 235.16 296.90 233.47 298.47 231.87 Z" />
</g>
<g id="#dfdedeff">
<path fill="#dfdede" opacity="1.00" d=" M 478.05 236.49 C 479.83 239.46 480.23 242.94 480.59 246.31 C 477.62 244.10 478.29 239.74 478.05 236.49 Z" />
</g>
<g id="#afafafff">
<path fill="#afafaf" opacity="1.00" d=" M 419.54 249.18 C 420.63 251.58 421.04 254.18 420.57 256.79 C 420.04 255.99 418.97 254.39 418.44 253.59 C 418.76 252.11 419.13 250.64 419.54 249.18 Z" />
</g>
<g id="#acacacff">
<path fill="#acacac" opacity="1.00" d=" M 423.36 257.62 C 422.50 255.85 422.16 253.82 422.88 251.95 C 423.27 252.40 424.06 253.30 424.45 253.75 C 424.60 255.13 423.97 256.42 423.36 257.62 Z" />
</g>
<g id="#d73733ff">
<path fill="#d73733" opacity="1.00" d=" M 456.69 277.32 C 460.27 276.99 463.85 276.54 467.43 276.04 C 467.30 276.53 467.05 277.50 466.92 277.99 C 466.82 278.37 466.61 279.13 466.51 279.51 C 463.56 280.08 460.58 280.63 457.86 281.96 C 457.40 280.43 457.03 278.87 456.69 277.32 Z" />
</g>
<g id="#46b2c5ff">
<path fill="#46b2c5" opacity="1.00" d=" M 259.77 324.60 C 274.63 325.34 289.54 324.81 304.42 324.85 L 304.70 324.86 C 313.80 325.04 322.89 324.88 331.99 324.93 C 337.73 324.87 343.49 325.24 349.20 324.53 C 348.34 326.10 346.61 326.17 345.05 326.20 C 318.04 326.22 291.04 326.29 264.03 326.18 C 262.43 326.24 260.81 325.91 259.77 324.60 Z" />
</g>
</svg>
